<?xml version="1.0" encoding="utf-8"?>
<!-- Generator: Adobe Illustrator 24.2.0, SVG Export Plug-In . SVG Version: 6.00 Build 0)  -->
<svg version="1.1" id="레이어_1" xmlns="http://www.w3.org/2000/svg" xmlns:xlink="http://www.w3.org/1999/xlink" x="0px"
	 y="0px" viewBox="0 0 206.22 62.86" style="enable-background:new 0 0 206.22 62.86;" xml:space="preserve">
<g>
	<g>
		<path style="fill:#FFFFFF;" d="M171.83,50.39c-0.26-1.94-1.65-3.8-4.72-3.91c-3.37-0.12-5.22,2.14-5.22,4.49
			c0,2.5,2.05,4.48,4.98,4.48c2.72,0,4.8-1.58,4.99-4.23L171.83,50.39z M166.87,54.05c-1.9,0-3.34-1.33-3.34-3.15
			c0-1.82,1.44-3.12,3.34-3.12s3.37,1.31,3.37,3.12C170.24,52.72,168.78,54.05,166.87,54.05z"/>
		<path style="fill:#FFFFFF;" d="M19.12,58.85c-0.9-0.06-1.76,0-2.62,0c-3.87,0-8.28,0.09-11.03,0.28
			c-0.43,0.02-0.75,0.06-1.01,0.11c-0.77,0.11-1.25,0.21-1.51,0.21c-0.11,0-0.21-0.02-0.37-0.06c-0.75-0.22-1.51-0.58-2.26-1.1
			c-0.21-0.15-0.32-0.28-0.32-0.43c0-0.17,0.15-0.24,0.49-0.17c0.9,0.15,1.96,0.21,3.16,0.24c1.51,0,3.64-0.02,5.58-0.06v-3.85
			l-3.03,0.07c-0.82,0.02-1.5-0.73-1.51-1.55l-0.1-6.79c-0.19-0.23-0.28-0.5-1.19-0.78c-0.58-0.18-0.36-0.67,0.11-0.65
			c1.13,0.05,1.68,0.15,2.33,0.29c0.41,0.09,0.56,0.19,0.56,0.19s0.02,0.78,0,1.1v1.81l7.67-0.15v-2.44
			c-0.33-0.35-0.46-0.46-1.2-0.82c-0.44-0.22-0.31-0.68,0.21-0.63c0.77,0.08,1.26,0.12,2.28,0.47c0.34,0.12,0.49,0.19,0.49,0.19
			l-0.09,7.49c0,0.33,0.01,0.89,0.02,1.28c0.01,0.41-0.31,0.74-0.71,0.75l-4.18,0.13v3.82c1.03-0.02,2.42-0.06,3.49-0.13
			c1.12-0.04,1.83-0.15,2.15-0.32c0.34-0.17,0.6-0.26,0.84-0.26c0.8,0,1.48,0.09,2.06,0.24c0.43,0.15,0.67,0.39,0.67,0.71
			C20.11,58.57,19.77,58.92,19.12,58.85z M14.08,48.63L6.39,48.8v3.37c0,0.38,0.31,0.69,0.69,0.68l7-0.19V48.63z"/>
		<path style="fill:#FFFFFF;" d="M31.59,53.12c0.24-0.09,0.37-0.21,0.37-0.39c0.02-0.19-0.09-0.28-0.26-0.28
			c-0.04,0-0.17,0.02-0.37,0.04c-0.97,0.19-2.04,0.3-3.29,0.41c-0.88,0.09-1.96,0.11-3.05,0.09c-0.3,0-0.45-0.17-0.45-0.45v-2.56
			c0.02-0.11,0.02-0.17,0.02-0.24c1.46-0.09,3.18-0.17,5.22-0.28c0.41-0.02,0.6-0.15,0.6-0.43c0-0.28-0.26-0.49-0.8-0.67
			c0.21-0.78,0.49-2.1,0.68-3.01c0.11-0.51-0.29-1-0.82-1c-1.6,0-4.28,0.07-5.23,0.05c-0.95-0.02-1.7,0.05-2.26-0.04
			c-0.3-0.04-0.45,0.02-0.45,0.19c0,0.09,0.06,0.19,0.22,0.3c0.9,0.67,1.59,0.99,2.04,0.99c0.11,0,0.28-0.04,0.52-0.15
			c0.32-0.15,0.77-0.24,1.4-0.28c0.61-0.06,1.43-0.08,2.38-0.09c0.19,0,0.34,0.16,0.33,0.35c-0.06,1.43-0.1,2.32-0.14,2.66
			c-0.04,0.17-0.15,0.24-0.32,0.26c-0.8,0.11-1.81,0.15-3.07,0.15c-0.26,0.02-1.98,0.04-2.99,0.04c-0.49,0-0.42,0.1-0.42,0.34
			c0,0.13,0.1,0.38,0.36,0.47c0.31,0.11,0.61,0.14,0.83,0.22c0.07,0.02,0.12,0.1,0.12,0.17v2.68c0,0.97,0.47,1.66,1.03,1.85
			c0.19,0.06,0.52,0.06,0.9,0.04c0.99-0.09,2.19-0.26,3.38-0.49C29.38,53.78,30.54,53.44,31.59,53.12z"/>
		<path style="fill:#FFFFFF;" d="M32.02,54.76c-2.74,0-4.73,1.53-4.73,3.75c0,2.3,2.19,3.61,4.58,3.61s4.62-1.31,4.62-3.61
			C36.5,56.56,34.81,54.76,32.02,54.76z M31.94,60.88c-1.69,0-2.97-1.08-2.97-2.47c0-1.42,1.28-2.47,2.97-2.47
			c1.67,0,2.95,1.06,2.95,2.47C34.89,59.8,33.63,60.88,31.94,60.88z"/>
		<path style="fill:#FFFFFF;" d="M36.48,42.69c-1.01-0.36-1.44-0.51-2.22-0.67c-0.57-0.12-0.76,0.46-0.32,0.7
			c0.69,0.39,1.07,0.68,1.43,1.04v2.45c-0.8,0.09-1.59,0.13-2.34,0.15c-0.69,0.02-1.29,0-1.83-0.06c-0.3-0.04-0.45,0-0.45,0.15
			c0,0.11,0.09,0.21,0.24,0.32c0.43,0.34,0.95,0.6,1.51,0.8c0.17,0.04,0.3,0.06,0.41,0.06c0.17,0,0.47-0.24,1.07-0.32
			c0.34-0.04,0.82-0.11,1.4-0.13v2.88c-0.82,0.09-1.7,0.11-2.64,0.13c-0.69,0.02-1.31,0-1.83-0.06c-0.3-0.04-0.45,0-0.45,0.15
			c0,0.11,0.09,0.26,0.24,0.37c0.82,0.56,1.44,0.84,1.91,0.84c0.09,0,0.21-0.04,0.37-0.13c0.26-0.15,0.75-0.24,1.44-0.3
			c0.13,0,0.47-0.02,0.97-0.02v2.8c0,1.33,0.51,1.66,0.88,1.66c0.49,0,0.74-0.59,0.74-1.88c0-1.13,0-1.87,0-2.86v-7.83
			C36.98,42.92,36.79,42.8,36.48,42.69z"/>
		<path style="fill:#FFFFFF;" d="M117.02,59.93c-0.22,0-0.49,0.06-0.8,0.22c-0.28,0.15-0.92,0.28-1.87,0.34
			c-0.99,0.06-2.89,0.09-4.57,0.06c-0.3,0-0.43-0.15-0.43-0.45v-1.06c0-0.19,0-0.43,0.02-0.54c2.17-0.11,4.87-0.17,7.86-0.17
			c0.43,0,0.64-0.15,0.64-0.43c0-0.28,0.17-0.49-0.41-0.58c0.14-0.3,0.49-1.34,0.67-2.03c0.1-0.37-0.19-0.73-0.57-0.73
			c-0.73,0-5.85,0.22-8.3,0.22c-0.92,0-1.78-0.06-2.64-0.19c-0.28-0.04-0.45,0.02-0.45,0.21c0,0.11,0.06,0.19,0.22,0.28
			c0.56,0.39,1.18,0.69,1.83,0.97c0.15,0.06,0.3,0.09,0.41,0.09c0.13,0,0.3-0.04,0.49-0.15c0.28-0.15,0.77-0.24,1.44-0.28
			c1.33-0.08,3.42-0.12,5.28-0.13c0.16,0,0.29,0.13,0.29,0.29c0.01,0.54,0,1.05-0.05,1.42c-0.04,0.11-0.13,0.17-0.24,0.17
			c-1.51,0.11-3.93,0.15-6.16,0.15c-0.32,0-2.27,0-2.94,0c-0.47,0-0.39,0.27-0.36,0.48c0.04,0.3,0.37,0.42,0.61,0.48
			c0.34,0.1,0.51,0.12,0.52,0.35c0.01,0.21,0,0.79,0,0.99c0,0.58,0.15,1.03,0.45,1.29c0.26,0.24,0.73,0.34,1.38,0.32
			c3.33-0.06,6.74-0.09,9.07-0.06c0.62,0,0.92-0.24,0.92-0.73C119.32,59.96,118.25,59.93,117.02,59.93z"/>
		<path style="fill:#FFFFFF;" d="M122.89,53.95c0.13,0,0.27-0.03,0.44-0.09c1.76-0.68,3.16-1.65,4.87-2.92
			c0.92-0.69,1.74-1.44,2.41-2.2l6.4,4.33c0.29,0.2,0.53,0.3,0.78,0.31c0.31,0.03,0.49-0.16,0.52-0.55c0.01-0.3-0.23-0.7-0.73-1.26
			c-0.42-0.47-0.87-0.89-1.4-1.28c-0.2-0.16-0.54-0.25-0.99-0.33c-0.6-0.11-1.18-0.32-1.73-0.68l-2.17-1.37
			c0.46-0.59,0.85-1.18,1.16-1.76c0.11-0.17,0.16-0.36,0.16-0.56c0.01-0.22-0.11-0.39-0.38-0.55c-0.84-0.55-1.67-0.87-2.43-1.05
			c-0.15-0.03-0.29-0.05-0.44-0.06c-0.42-0.01-0.46,0.04-0.51,0.18c-0.03,0.08,0,0.31,0.22,0.48c0.61,0.47,1.06,0.93,1.32,1.23
			c-0.64,1.19-1.84,2.85-3.44,4.31c-1.51,1.38-2.59,2.45-3.95,3.19c-0.21,0.1-0.32,0.25-0.32,0.36
			C122.66,53.86,122.72,53.95,122.89,53.95z"/>
		<path style="fill:#FFFFFF;" d="M62.18,51.37c0.13,0,0.27-0.03,0.44-0.09c1.76-0.68,3.07-1.34,4.38-2.08
			c1.15-0.65,2.3-1.61,3.02-2.28l6.46,3.32c0.29,0.2,0.53,0.3,0.78,0.31c0.31,0.03,0.49-0.16,0.52-0.55
			c0.01-0.3-0.11-0.46-0.45-0.81c-0.38-0.38-0.94-0.85-1.49-1.21c-0.72-0.47-1.76-0.25-2.91-0.76c-0.57-0.25-2.23-1.12-2.23-1.12
			c0.46-0.59,0.57-0.76,0.88-1.33c0.11-0.17,0.16-0.36,0.16-0.56c0.01-0.22-0.11-0.39-0.38-0.55c-0.84-0.55-1.67-0.87-2.43-1.05
			c-0.15-0.03-0.29-0.05-0.44-0.06c-0.42-0.01-0.61,0.09-0.62,0.31c0,0.09,0.1,0.2,0.32,0.36c0.74,0.48,1.14,0.92,1.25,1.36
			c-0.64,1.19-1.48,2.12-3.12,3.53c-1.43,1.22-2.69,1.91-4.05,2.64c-0.21,0.1-0.32,0.25-0.32,0.36
			C61.95,51.28,62.01,51.37,62.18,51.37z"/>
		<path style="fill:#FFFFFF;" d="M91.5,47.39c-0.16,1.51-0.48,5.64-0.69,7.33c-0.07,0.52-0.5,0.91-1.02,0.91
			c-1.4,0.02-4.27,0.07-5.49,0.1c-0.68,0.02-1.21-0.5-1.26-1.18l-0.44-7.08c-0.35-0.19-0.74-0.33-1.38-0.57
			c-0.46-0.26-0.38-0.72,0.11-0.69c0.71,0.04,1.82,0.15,2.5,0.19c1.83,0,3.47-0.08,4.9-0.09c0.9-0.01,1.93-0.14,2.37,0.03
			C91.53,46.52,91.55,46.88,91.5,47.39z M84.45,47.66c-0.02,0.11,0.13,6.23,0.13,6.23c0.01,0.43,0.36,0.63,0.79,0.63
			c1.47,0,2.68-0.04,3.65-0.13c0.15-0.02,0.34-0.1,0.35-0.33c0.11-1.8,0.32-6.53,0.32-6.53C88.1,47.53,86.24,47.58,84.45,47.66z"/>
		<path style="fill:#FFFFFF;" d="M97.21,56.79c0,3.8-0.03,5.91-0.73,6c-0.6,0.07-0.92-0.79-0.92-2.32V43.74
			c-0.36-0.37-0.75-0.68-1.61-1.07c-0.41-0.18-0.34-0.84,0.26-0.74c0.64,0.11,1.29,0.24,2.32,0.58c0.39,0.13,0.68,0.32,0.68,0.32
			V56.79z"/>
		<path style="fill:#FFFFFF;" d="M95.76,49.76l-5.03,0.22l-0.02,0.73c0,0,1.25,0.68,1.72,0.64c0.47-0.04,0.67-0.28,2.14-0.38
			s1.61-0.17,1.61-0.17L95.76,49.76z"/>
		<path style="fill:#FFFFFF;" d="M56.9,51.19c0,3.8-0.03,5.91-0.73,6c-0.6,0.07-0.92-0.79-0.92-2.32V43.79
			c-0.36-0.37-0.75-0.68-1.61-1.07c-0.41-0.18-0.34-0.84,0.26-0.74c0.64,0.11,1.29,0.24,2.32,0.58c0.39,0.13,0.68,0.32,0.68,0.32
			V51.19z"/>
		<path style="fill:#FFFFFF;" d="M118.05,47.83c0,3.8-0.03,5.91-0.73,6c-0.6,0.07-0.92-0.79-0.92-2.32v-7.69
			c-0.36-0.37-0.75-0.68-1.61-1.07c-0.41-0.18-0.34-0.84,0.26-0.74c0.64,0.11,1.29,0.24,2.32,0.58c0.39,0.13,0.68,0.32,0.68,0.32
			V47.83z"/>
		<path style="fill:#FFFFFF;" d="M114.58,47.83c0,3.8-0.03,5.91-0.73,6c-0.6,0.07-0.92-0.79-0.92-2.32v-6.24
			c-0.36-0.37-0.75-0.68-1.61-1.07c-0.41-0.18-0.34-0.84,0.26-0.74c0.64,0.11,1.29,0.24,2.32,0.58c0.39,0.13,0.68,0.32,0.68,0.32
			V47.83z"/>
		<path style="fill:#FFFFFF;" d="M154.87,45.98v10.07c0,3.89-0.03,5.4-0.76,5.42c-0.61,0.02-0.82-0.63-0.82-2.25v-7.65
			c-0.87,0-2.24,0.13-2.53,0.23c-0.21,0.07-0.4,0.12-0.51,0.12c-0.11,0-0.22-0.02-0.37-0.09c-0.52-0.2-0.96-0.48-1.33-0.77
			c-0.15-0.11-0.24-0.22-0.24-0.31c0-0.09,0.07-0.15,0.18-0.17c0.07-0.02,0.13-0.02,0.24,0c0.55,0.04,1.14,0.07,1.68,0.04
			c0.55,0,2.32-0.02,2.89-0.09v-5.32c-0.44-0.44-0.75-0.69-1.32-0.98c-0.35-0.18-0.28-0.83,0.32-0.7c0.73,0.17,0.99,0.2,1.93,0.55
			c0.33,0.11,0.66,0.28,0.66,0.28S154.87,45.72,154.87,45.98z M158.51,56.85c0,3.8-0.03,5.91-0.73,6c-0.6,0.07-0.92-0.79-0.92-2.32
			V43.8c-0.36-0.37-0.75-0.68-1.61-1.07c-0.41-0.18-0.34-0.84,0.26-0.74c0.64,0.11,1.29,0.24,2.32,0.58
			c0.39,0.13,0.68,0.32,0.68,0.32V56.85z"/>
		<path style="fill:#FFFFFF;" d="M148.17,50.75c-0.71,0.15-1.64,0.34-2.61,0.54c-0.13,0.02-0.89,0.32-1.33,0.32
			c-0.39,0.01-1.23-0.41-1.92-0.73c-0.22-0.13-0.32-0.26-0.32-0.37c0-0.17,0.13-0.26,0.43-0.24c0.8,0.09,1.53,0.11,2.18,0.06
			c1.23-0.09,2.69-0.26,4.01-0.5"/>
		<path style="fill:#FFFFFF;" d="M148.6,49.85c0.43-0.97,0.75-1.96,0.97-2.97c-0.95,0.02-2.09,0.11-2.91,0.19
			c-0.65,0.07-1.16,0.38-1.38,0.31c-0.41-0.12-0.96-0.25-1.92-0.83c-0.19-0.13-0.28-0.24-0.28-0.35c0-0.17,0.11-0.24,0.35-0.22
			c0.95,0.11,1.66,0.15,2.13,0.15c1.08,0.02,2.48-0.1,3.75-0.15c0.5-0.02,1.43-0.1,1.83-0.03c0.59,0.11,0.35,0.85,0.31,1.04
			c-0.23,0.99-0.39,1.41-1.47,3.73c-1.24,2.67-4.01,5.28-6.64,7.01c-0.19,0.15-0.37,0.22-0.5,0.22c-0.15,0-0.22-0.09-0.22-0.26
			c0-0.11,0.09-0.22,0.24-0.34c2.26-2.03,4.1-4.25,5.3-6.6"/>
		<path style="fill:#FFFFFF;" d="M47.79,49.35c-0.71,0.15-1.9,0.39-3.12,0.58c-0.54,0.08-0.89,0.32-1.33,0.32
			c-0.39,0.01-1.23-0.41-1.92-0.73c-0.22-0.13-0.32-0.26-0.32-0.37c0-0.17,0.13-0.26,0.43-0.24c0.8,0.09,1.53,0.11,2.18,0.06
			c1.23-0.09,3.2-0.3,4.52-0.53"/>
		<path style="fill:#FFFFFF;" d="M47.71,49.24c0.82-1.35,1.38-2.55,1.6-3.56c-0.95,0.02-2.86,0.11-3.68,0.19
			c-0.65,0.07-1.16,0.38-1.38,0.31c-0.41-0.12-0.96-0.25-1.92-0.83c-0.19-0.13-0.28-0.24-0.28-0.35c0-0.17,0.11-0.24,0.35-0.22
			c0.95,0.11,1.66,0.15,2.13,0.15c1.08,0.02,3.25-0.1,4.52-0.15c0.5-0.02,1.43-0.1,1.83-0.03c0.59,0.11,0.35,0.85,0.31,1.04
			c-0.23,0.99-0.75,2.55-2.32,4.56c-2.78,3.55-4.89,4.62-6.6,5.58c-0.21,0.12-0.51,0.17-0.63,0.17c-0.15,0-0.22-0.09-0.22-0.26
			c0-0.11,0.09-0.22,0.24-0.34C42.74,54.74,45.6,52.74,47.71,49.24z"/>
		<path style="fill:#FFFFFF;" d="M177.3,56.85c0,3.8-0.03,5.91-0.73,6c-0.6,0.07-0.92-0.79-0.92-2.26V43.86
			c-0.36-0.44-0.75-0.75-1.61-1.14c-0.41-0.18-0.34-0.84,0.26-0.74c0.64,0.11,1.29,0.24,2.32,0.58c0.39,0.13,0.68,0.32,0.68,0.32
			V56.85z"/>
		<path style="fill:#FFFFFF;" d="M73.98,53.05c1.12-0.04,1.83-0.15,2.15-0.32c0.34-0.17,0.6-0.26,0.84-0.26
			c0.8,0,1.48,0.09,2.06,0.24c0.43,0.15,0.67,0.39,0.67,0.71c0,0.54-0.34,0.88-0.99,0.82c-0.9-0.06-1.76,0-2.62,0
			c-3.87,0-7.61,0.09-10.36,0.28c-0.43,0.02-0.75,0.06-1.01,0.11c-0.77,0.11-1.25,0.21-1.51,0.21c-0.11,0-0.21-0.02-0.37-0.06
			c-0.75-0.22-1.51-0.58-2.26-1.1c-0.21-0.15-0.32-0.28-0.32-0.43c0-0.17,0.15-0.24,0.49-0.17c0.9,0.15,1.96,0.21,3.16,0.24
			c1.51,0,3.64-0.01,5.58-0.06C70.61,53.21,72.9,53.11,73.98,53.05z"/>
		<path style="fill:#FFFFFF;" d="M73.77,53.52v3.03c0,3.8-0.03,5.91-0.73,6c-0.6,0.07-0.92-0.79-0.92-2.32v-6.71"/>
		<path style="fill:#FFFFFF;" d="M67.72,53.7v2.2c0,3.8-0.03,5.91-0.73,6c-0.6,0.07-0.92-0.79-0.92-2.32V53.7"/>
		<path style="fill:#FFFFFF;" d="M55.43,50.4c-0.87,0-2.06,0.11-2.45,0.17c-0.22,0.04-0.48,0.11-0.59,0.11
			c-0.11,0-0.22-0.02-0.37-0.09c-0.52-0.2-0.96-0.48-1.33-0.77c-0.15-0.11-0.24-0.22-0.24-0.31c0-0.09,0.07-0.15,0.18-0.17
			c0.07-0.02,0.13-0.02,0.24,0c0.55,0.04,1.14,0.07,1.68,0.04c0.55,0,2.32-0.02,2.89-0.09"/>
		<path style="fill:#FFFFFF;" d="M57.31,61.27c-1.92-0.01-5.07,0.06-8.08,0.07c-1.89,0-2.29-0.47-2.29-1.94l-0.02-2.27
			c-0.18-0.18-0.52-0.25-1.44-0.69c-0.51-0.24-0.24-0.77,0.08-0.75c0.87,0.04,1.52,0.13,2.08,0.24c0.34,0.07,0.61,0.14,0.8,0.2
			c0.17,0.05,0.29,0.21,0.28,0.39l-0.04,3.16c0,0.43,0.19,0.65,0.6,0.67c0.58,0.03,2.89,0.04,4.4,0.04c0.67,0,0.97-0.05,1.31-0.17
			c0.37-0.13,0.61-0.28,0.95-0.28c1.66,0,2.33-0.06,2.3,0.68C58.24,60.99,57.93,61.27,57.31,61.27z"/>
		<path style="fill:#FFFFFF;" d="M102.91,47.57c0.17,0.07,0.44,0.01,0.61-0.02c0.51-0.11,1-0.2,1.51-0.24
			c0.56-0.04,2.35-0.07,3.44-0.09c0.88-0.01,1.76,0,2.67,0.02c0.45,0.01,0.69-0.19,0.69-0.6c0-0.3-0.17-0.52-0.5-0.58
			c-0.31-0.06-0.71-0.13-1.33-0.13c-0.28,0-0.54,0.02-0.93,0.15c-0.54,0.17-0.95,0.23-4.7,0.27c-1.07,0.01-2.11-0.08-3.09-0.19
			c-0.28-0.02-0.41,0.02-0.41,0.17c0,0.15,0.08,0.28,0.23,0.39C101.66,47.1,102.26,47.31,102.91,47.57z"/>
		<path style="fill:#FFFFFF;" d="M105.07,45.17c0.24,0.17,0.52,0.24,0.84,0.24c0.17,0,0.34-0.01,0.52-0.02
			c0.72-0.06,1.16-0.03,1.7-0.06c0.54-0.03,0.8-0.17,0.8-0.58c0-0.41-0.26-0.64-0.8-0.64c-1.89,0-2.52-0.11-3.79-0.34
			c-0.15-0.02-0.65-0.16-0.73,0.11c-0.02,0.08,0.02,0.24,0.11,0.32C103.99,44.43,104.36,44.74,105.07,45.17z"/>
		<path style="fill:#FFFFFF;" d="M113.92,49.26l-4.03-0.03l-0.04,0.58c0,0,0.97,0.59,1.35,0.58c0.38-0.01,0.55-0.2,1.72-0.21
			c1.17-0.01,1.3-0.07,1.3-0.07L113.92,49.26z"/>
		<path style="fill:#FFFFFF;" d="M106.66,47.94c-2.33,0-3.91,1.33-3.91,2.96c0,1.64,1.57,2.96,3.91,2.96c2.33,0,3.91-1.33,3.91-2.96
			C110.57,49.21,109.25,47.94,106.66,47.94z M106.71,52.62c-1.39,0-2.32-0.79-2.32-1.75c0-0.97,0.93-1.75,2.32-1.75
			c1.54,0,2.32,0.76,2.32,1.75C109.03,51.84,108.1,52.62,106.71,52.62z"/>
		<path style="fill:#FFFFFF;" d="M176.3,50.11l-5.03,0.06l-0.04,0.73c0,0,1.23,0.72,1.7,0.69c0.47-0.03,0.68-0.26,2.15-0.31
			c1.47-0.04,1.62-0.12,1.62-0.12L176.3,50.11z"/>
		<path style="fill:#FFFFFF;" d="M139.61,57.08c-0.69-0.18-1.42-0.27-1.88-0.27c-0.12,0-0.24,0.03-0.36,0.08
			c-0.27,0.12-0.89,0.38-1.7,0.41c-1.07,0.06-2.97,0.1-4,0.12c-1.77,0.04-5.58,0.12-7.08,0.12c-1.2-0.02-2.06-0.05-3.16-0.15
			c-0.35-0.03-0.49,0.04-0.49,0.2c0,0.14,0.11,0.23,0.32,0.38c0.75,0.5,1.51,0.73,2.26,0.94c0.15,0.04,0.26,0.06,0.37,0.06
			c0.26,0,0.73-0.1,1.5-0.2c0.26-0.04,0.58-0.08,1.01-0.1c2.75-0.19,6.53-0.27,10.4-0.27c0.86,0,1.72-0.02,2.62,0
			c0.68,0.01,1.11-0.1,1.15-0.56C140.61,57.4,140.15,57.22,139.61,57.08z"/>
	</g>
	<g>
		<g>
			<path style="fill:#FFFFFF;" d="M15.7,13.54c1.4-0.48,4.16-2.03,4.16-6.8c0-3.81-2.96-6.27-8.21-6.27c-1.5,0-11.65,0-11.65,0v0.7
				c2.29,0,2.95,1.28,2.95,3.54c0,1.66,0,1.13,0,20.64c0,4.05-1.49,3.9-2.94,4v0.7h13.12c6.14,0,9.72-3.24,9.72-8.3
				C22.85,16.35,18.68,14.11,15.7,13.54z M6.52,3.13c0-0.93,0.58-1.08,1.22-1.08c0.95,0,2.48,0,3.2,0c1.95,0,5.65,0.44,5.65,5.47
				c0,3.64-1.83,5.61-3.92,5.61c0,0-5.74,0-6.15,0C6.52,11.94,6.52,3.42,6.52,3.13z M11.46,28.5c-2.02,0-4.95,0.27-4.95-2.35
				c0-4.32,0-11.4,0-11.4s3.66,0,5.57,0c3.89,0,7.06,1.92,7.06,7.35C19.14,28.33,13.68,28.5,11.46,28.5z"/>
			<path style="fill:#FFFFFF;" d="M74.51,16.83c1.28-0.64,4.62-2.61,4.62-8.65c0-3.78-2.32-7.72-9.21-7.72c-1.5,0-10.83,0-10.83,0
				v0.7c2.29,0,2.95,1.28,2.95,3.54c0,1.53,0,21.01,0,21.01c0,3.33-1.42,3.54-2.94,3.63v0.7h9.48v-0.71c-2.31-0.04-2.97-1-2.97-3.92
				c0-4.32,0-7.87,0-7.87h5.48c0,0,6.06,7.94,7.41,9.51c1.68,1.94,2.8,2.99,5.21,2.99c2.41,0,4.7,0,4.7,0v-0.7
				c-1.92,0-3.56-0.51-4.94-1.7C81.45,25.91,74.51,16.83,74.51,16.83z M69.92,15.84H65.6c0-1.19,0-12.49,0-12.78c0-0.83,0.4-1,1.4-1
				c0.35,0,1.23,0,1.69,0c2.54,0,6.85,0.92,6.85,7.19C75.54,14.73,72.8,15.84,69.92,15.84z"/>
			<path style="fill:#FFFFFF;" d="M104,1.17c2.06,0,1.8,1.63,1.36,2.45c-0.46,0.86-5.57,9.61-6.8,11.71
				c-0.61-1.01-6.63-11.04-7.25-12.21c-0.65-1.23,0.02-1.95,1.08-1.95v-0.7h-9.23v0.7c2.25,0,3.88,1.81,4.6,2.97
				c0.61,0.98,6.16,9.84,6.78,10.92c0.63,1.08,1.39,2.38,1.39,4.29s0,4.1,0,6.79c0,2.69-1.44,3.21-2.94,3.21v0.7h9.45v-0.7
				c-2.23,0-2.94-1.27-2.94-3.34c0-0.68,0-5.54,0-6.65c0-1.26,0.23-2.4,0.91-3.78c0.68-1.38,5.45-9.04,6.92-11.51
				c1.38-2.31,3.07-2.91,4.4-2.91V0.46H104V1.17z"/>
			<path style="fill:#FFFFFF;" d="M134.15,1.17c2.31,0,2.95,1.37,2.95,3.46c0,0.43,0,11.04,0,12.92c0,4.29-0.72,10.99-8.56,10.99
				c-7.93,0-8.72-7-8.72-9.41c0-1.5,0-13.65,0-14.57c0-2.9,1.32-3.39,2.94-3.39V0.46h-9.66v0.71c2.34,0,2.95,1.53,2.95,3.18
				c0,0.45,0,12.03,0,13.77c0,3.46,0.51,12.34,12.01,12.34c11.26,0,11.5-10.32,11.5-13.15c0-1.08,0-11.88,0-12.81
				c0-3.19,1.75-3.27,2.95-3.32v-0.7h-8.36V1.17z"/>
			<path style="fill:#FFFFFF;" d="M166.78,1.17c2.27,0,2.95,1.34,2.95,3.22c0,1,0,19.18,0,19.18L147.44,0.34
				c-0.32-0.35-0.9-0.12-0.9,0.35v25.38c0,3.29-2,3.23-2.95,3.28v0.7l8.01,0.01v-0.71c-1.5,0-2.96-0.46-2.96-3.29c0-1.69,0-19,0-19
				l22.3,23.11c0.32,0.34,0.9,0.12,0.9-0.35V4.51c0-2.49,1.08-3.34,2.96-3.34V0.46h-8.02V1.17z"/>
			<path style="fill:#FFFFFF;" d="M197.02,15.39v0.7c1.51,0,2.92,0.52,2.92,3.17v7.28c0,0.54-0.3,1.03-0.78,1.27
				c-1.53,0.76-2.72,0.79-4.47,0.79c-6.73,0-13.77-5.16-13.77-14.89c0-9.37,6.89-12.05,11.83-12.05c4.84,0,7.27,1.2,8.5,2.28
				c0.74,0.65,1.46,2,1.46,3.85h0.68l0.51-5.73C200.75,0.65,196.55,0,193.76,0c-10.26,0-16.81,5.46-16.81,15.22
				c0,9.69,7.87,15.24,17.26,15.24c5.51,0,8.33-1.47,9.34-2.06c0,0,0-8.28,0-9.33c0-1.84,0.85-2.98,2.68-2.98v-0.7H197.02z"/>
			<path style="fill:#FFFFFF;" d="M41.26,0.18c-6.88-1.16-14.83,5.16-14.83,15.05v0v0c0,9.9,7.96,16.21,14.83,15.05
				c-6.7-1.13-10.55-7.57-10.55-15.05S34.55,1.31,41.26,0.18z"/>
			<path style="fill:#FFFFFF;" d="M41.26,0.18c6.7,1.13,10.55,7.57,10.55,15.05s-3.85,13.92-10.55,15.05
				c6.88,1.16,14.83-5.16,14.83-15.05v0v0C56.09,5.33,48.13-0.98,41.26,0.18z"/>
		</g>
	</g>
</g>
</svg>
