<?xml version="1.0" encoding="utf-8"?>
<!-- Generator: Adobe Illustrator 24.2.0, SVG Export Plug-In . SVG Version: 6.00 Build 0)  -->
<svg version="1.1" id="레이어_1" xmlns="http://www.w3.org/2000/svg" xmlns:xlink="http://www.w3.org/1999/xlink" x="0px"
	 y="0px" viewBox="0 0 436.55 68.29" style="enable-background:new 0 0 436.55 68.29;" xml:space="preserve">
<g>
	<g>
		<path style="fill:none;stroke:#FFFFFF;stroke-width:3;stroke-miterlimit:10;" d="M39.24,2.67C17.21,8.16,0.31,21.21,1.57,32.4
			l0.02-0.09c1.26,11.2,21.22,25.53,44.65,32.57c23.43,7.03,40.35-5.79,37.67-29.77l-0.01,0.17C81.22,11.29,61.27-2.79,39.24,2.67"
			/>
		<path style="fill:none;stroke:#FFFFFF;stroke-width:3;stroke-miterlimit:10;" d="M30.55,9.21C14.43,18.1,3.92,31.86,7.25,40.37
			v-0.08c3.31,8.5,21.95,15.57,41.78,16.19c19.82,0.61,30.4-12.97,23.29-31.18l0.03,0.13C65.24,7.2,46.67,0.33,30.55,9.21"/>
		<path style="fill:#FFFFFF;" d="M38.95,15.81C25.47,16.94,14.34,22.7,14.09,29l0.02-0.05c-0.25,6.29,10.25,15.94,23.46,21.84
			c13.2,5.9,24.32,0.28,24.87-13.21l-0.02,0.09C62.95,24.19,52.44,14.69,38.95,15.81"/>
		<polygon points="45.39,23.91 45.39,24.41 45.36,39.76 49.3,39.76 49.32,23.6 45.39,23.6 		"/>
		<path style="stroke:#000000;stroke-miterlimit:10;" d="M42.54,31.69v-0.04c0,0.02,0,0.03,0,0.03V31.69z"/>
		<path style="stroke:#000000;stroke-miterlimit:10;" d="M62.42,37.61v-0.22c0,0-0.01,0-0.01,0c0,0.09,0,0.19,0,0.29L62.42,37.61z"
			/>
		<path style="stroke:#000000;stroke-miterlimit:10;" d="M62.42,37.61v0.04c0-0.03,0-0.04,0-0.06L62.42,37.61z"/>
		<path d="M24.32,39.38c1.22-0.19,2.5-1.07,2.57-1.11c0,0,0.01,0,0.01,0v-0.01c0.36-0.3,0.67-0.63,0.88-1.02
			c0.26-0.46,0.39-0.99,0.39-1.59c0-0.12,0.01-12.07,0.01-12.07l-3.93,0v0.31c0,0-0.01,10.05-0.02,11.47
			c-0.02,0.29-0.08,0.76-0.31,0.99c-0.09,0.07-0.21,0.16-0.3,0.23c-0.24,0.14-0.69,0.33-1.47,0.48c-0.28,0.03-1.05,0.08-1.34,0.11
			c-0.22,0.01-0.47,0.03-0.71,0.05l-1.95,0.08c0.71,0.81,1.5,1.63,2.37,2.46c0.47,0,1.06-0.02,1.44-0.05
			C23.28,39.61,24.32,39.38,24.32,39.38z"/>
		<path d="M41.57,23.69c-0.05-0.01-1.61-0.1-1.61-0.1c-0.02,0-2.48,0-2.48,0s-0.05,0-0.13,0c-0.37-0.02-2.5-0.07-4.23,0.66
			c0,0-0.55,0.19-1.15,0.64c-0.01,0-0.01,0-0.02,0.01c-0.01,0.01-0.02,0.02-0.03,0.03c-0.2,0.16-0.39,0.32-0.57,0.53
			c-0.02,0.02-0.03,0.05-0.05,0.06c-0.12,0.15-0.24,0.32-0.35,0.49c-0.02,0.03-0.05,0.06-0.07,0.09c-0.25,0.46-0.38,0.99-0.38,1.59
			c0,0.13-0.01,7.84-0.01,7.84c0,0.71,0.13,1.24,0.38,1.7c0.01,0.01,0.01,0.02,0.01,0.02c0.12,0.25,0.4,0.69,0.96,1.12
			c0.02,0.02,0.03,0.04,0.05,0.05c0,0,0.02,0.02,0.03,0.02c0.32,0.24,0.74,0.47,1.27,0.68c0.02,0.02,0.04,0.03,0.04,0.03
			c0.01,0,0.05,0.02,0.1,0.03c0.4,0.15,0.86,0.29,1.4,0.38c0,0,0.59,0.11,1.39,0.17c0.04,0.01,0.07,0.01,0.07,0.01
			c0,0,0.04,0,0.09,0c0.34,0.02,0.7,0.04,1.09,0.04c0.05,0,0.09,0,0.09,0c0.01,0,2.47,0,2.47,0c0.02,0,1.58-0.08,1.58-0.08
			c0.04,0,1.09-0.25,1.38-0.33v-2.16l-4.75-0.01c0,0-0.43-0.02-0.81-0.04c-0.04,0-0.07-0.01-0.07-0.01
			c-1.78-0.15-2.43-0.6-2.67-0.88c-0.11-0.14-0.17-0.34-0.17-0.6V35.5c0-0.1,0.01-1.97,0.01-2.66c0.54,0,4.61,0.01,4.61,0.01
			c0.02,0,1.89-0.09,1.89-0.09c0.01-0.01,0.08-0.03,0.17-0.05c0.42-0.06,1.28-0.31,1.28-0.31l0.17-0.04v-0.69v-0.01
			c0,0,0-0.01,0-0.03v-1.1c-0.23-0.03-1.72-0.23-2.12-0.27c-0.06-0.01-0.1-0.01-0.1-0.01h-5.9c0-0.49,0-2.41,0-2.41
			c0-0.03,0-0.16,0-0.16c0-0.22,0.04-0.38,0.11-0.51c0.23-0.32,0.94-0.86,3.19-1.01c0.24-0.01,0.43-0.02,0.43-0.02l4.73,0.01V24
			l-0.3-0.07L41.57,23.69z"/>
		<path d="M62.41,37.68c0-0.1,0-0.2,0-0.29c-0.31-0.02-1.84-0.09-2.5-0.13c-0.21-0.02-0.46-0.04-0.78-0.06c0,0-0.43-0.04-0.79-0.07
			c-1.44-0.24-2-0.68-2.21-1.01c-0.07-0.16-0.11-0.34-0.1-0.59c0-0.01,0.02-11.92,0.02-11.92l-3.93,0v0.32L52.1,35.57
			c-0.02,0.62,0.11,1.21,0.38,1.7c0.05,0.09,0.12,0.17,0.18,0.25c0.06,0.09,0.12,0.19,0.19,0.27c0.07,0.09,0.15,0.18,0.23,0.27
			c0.07,0.07,0.15,0.15,0.23,0.22c0.06,0.06,0.12,0.12,0.19,0.18c0.01,0,0.03,0.02,0.07,0.04c1.85,1.35,4.78,1.31,5.33,1.29
			c0.1,0,0.16,0.01,0.16,0.01c0,0,0.1,0,0.26,0c0.69,0.01,2.3,0.01,2.9,0.01c0.09-0.69,0.16-1.4,0.19-2.14v-0.04L62.41,37.68z"/>
	</g>
	<g>
		<g>
			<path style="fill:#FFFFFF;" d="M99.41,22.17v-4.57h16.06v4.57h-5.58v0.89c0,1.97,0.17,4.03,0.5,6.19c0.33,2.16,1,4.04,1.99,5.64
				c0.94,1.51,1.71,2.59,2.33,3.25c0.62,0.66,1.34,1.33,2.17,2.01l-3.21,3.51c-0.56-0.48-1.18-1.07-1.87-1.75
				c-0.68-0.68-1.37-1.5-2.07-2.43c-0.54-0.74-0.97-1.45-1.31-2.12c-0.34-0.67-0.68-1.4-1.02-2.2c-0.24,0.77-0.54,1.52-0.9,2.24
				c-0.36,0.73-0.89,1.63-1.59,2.71c-0.67,1.02-1.31,1.9-1.93,2.63c-0.62,0.73-1.33,1.47-2.13,2.24l-3.89-2.82
				c1.04-0.91,2.14-2.14,3.29-3.69c1.15-1.55,2.07-3.15,2.77-4.81c0.86-1.99,1.39-3.78,1.61-5.36c0.21-1.58,0.32-3.32,0.32-5.23
				v-0.89H99.41z M118.88,49.33V31.22h-5.1v-4.61h5.1V14.3h4.54v35.03H118.88z M126.39,51.04V13.45h4.54v37.59H126.39z"/>
			<path style="fill:#FFFFFF;" d="M158.7,29.7c-1.94,1.64-4.17,2.46-6.69,2.46c-2.49,0-4.71-0.81-6.67-2.43
				c-1.95-1.63-2.93-3.76-2.93-6.41c0-2.62,0.97-4.74,2.91-6.36c1.94-1.62,4.17-2.43,6.69-2.43c2.52,0,4.75,0.81,6.69,2.43
				c1.94,1.62,2.91,3.74,2.91,6.36C161.61,25.94,160.64,28.07,158.7,29.7z M155.37,20.14c-0.98-0.84-2.1-1.26-3.35-1.26
				s-2.38,0.43-3.35,1.28c-0.98,0.85-1.47,1.88-1.47,3.07c0,1.23,0.49,2.28,1.47,3.16c0.98,0.88,2.09,1.32,3.35,1.32
				s2.38-0.44,3.35-1.32c0.98-0.88,1.47-1.94,1.47-3.16C156.83,22.01,156.34,20.98,155.37,20.14z M147.64,50.62v-10h20.48v-2.31
				h-20.48v-3.97h25.7v9.96h-20.52v2.31h21.4v4.02H147.64z M168.72,33.02V13.45h4.66v19.57H168.72z"/>
			<path style="fill:#FFFFFF;" d="M184.66,22.81V19h17.59v3.8H184.66z M199.34,33.53c-1.67,0.97-3.62,1.45-5.84,1.45
				c-2.19,0-4.12-0.5-5.78-1.52c-1.66-1.01-2.49-2.4-2.49-4.17c0-1.68,0.84-3,2.51-3.95c1.67-0.96,3.61-1.43,5.8-1.43
				c2.22,0,4.16,0.49,5.82,1.47c1.66,0.98,2.49,2.31,2.49,4C201.85,31.18,201.01,32.56,199.34,33.53z M188.92,17.38v-3.72h8.99v3.72
				H188.92z M196.22,27.91c-0.7-0.38-1.59-0.58-2.69-0.58c-1.02,0-1.9,0.18-2.65,0.53c-0.75,0.36-1.13,0.86-1.13,1.52
				c0,0.71,0.38,1.25,1.14,1.62c0.76,0.37,1.64,0.55,2.63,0.55c1.07,0,1.96-0.21,2.67-0.62c0.71-0.41,1.07-0.93,1.07-1.56
				C197.27,28.79,196.92,28.29,196.22,27.91z M190.92,50.62v-8.8h21.12v-1.84h-21.12v-3.59h26.46v8.8h-21.16v1.79h22.01v3.63H190.92
				z M205.66,34.51v-6.83h-4.02V23.4h4.02v-9.31h4.5v20.42H205.66z M212.93,34.51V13.45h4.5v21.06H212.93z"/>
			<path style="fill:#FFFFFF;" d="M227.42,46.26v-4.32h35.34v4.32H227.42z M243.19,29.49c-0.92,0.98-2,1.97-3.23,2.97
				c-1.31,1.06-2.68,1.93-4.12,2.63c-1.43,0.7-2.58,1.2-3.43,1.52l-3.01-3.46c1.26-0.48,2.68-1.17,4.28-2.05
				c1.59-0.88,3.13-1.98,4.6-3.29c1.39-1.25,2.44-2.7,3.13-4.36c0.7-1.65,1.04-3.36,1.04-5.13v-2.78h5.3v2.78
				c0,1.77,0.35,3.48,1.04,5.13c0.7,1.65,1.74,3.11,3.13,4.36c1.5,1.31,3.04,2.41,4.62,3.29c1.58,0.88,3,1.57,4.26,2.05l-3.01,3.46
				c-0.86-0.32-2-0.82-3.43-1.52c-1.43-0.7-2.8-1.57-4.12-2.63c-1.23-1-2.29-1.99-3.19-2.97c-0.9-0.98-1.55-1.91-1.95-2.8
				C244.75,27.58,244.11,28.51,243.19,29.49z"/>
			<path style="fill:#FFFFFF;" d="M291.35,43.82c-0.83-0.51-1.73-1.13-2.69-1.86c-0.96-0.72-1.96-1.67-2.97-2.84
				c-0.78-0.91-1.43-1.78-1.97-2.63c-0.54-0.84-1.02-1.7-1.45-2.58c-0.43,1.06-0.96,2.04-1.61,2.97s-1.43,1.96-2.37,3.1
				c-0.78,0.94-1.58,1.75-2.41,2.43c-0.83,0.68-1.74,1.38-2.73,2.09l-3.53-3.21c1.58-1.05,3-2.21,4.28-3.46
				c1.27-1.25,2.35-2.66,3.23-4.23c1.02-1.82,1.71-3.72,2.09-5.71c0.38-1.98,0.56-4.04,0.56-6.17v-6.2h4.86v6.2
				c0,1.62,0.2,3.64,0.6,6.04c0.4,2.41,1.22,4.49,2.45,6.26c1.1,1.54,2.21,2.8,3.33,3.78c1.13,0.98,2.24,1.8,3.33,2.46L291.35,43.82
				z M301.75,32.71v18.33h-4.66V13.45h4.66v14.7h5.1v4.57H301.75z"/>
			<path style="fill:#FFFFFF;" d="M333.56,19.97c1.77,2.58,2.65,5.99,2.65,10.23c0,4.21-0.88,7.6-2.65,10.16
				c-1.77,2.56-4.16,3.85-7.19,3.85c-3,0-5.39-1.28-7.19-3.85c-1.79-2.56-2.69-5.95-2.69-10.16c0-4.3,0.9-7.72,2.69-10.28
				c1.79-2.55,4.19-3.82,7.19-3.82C329.39,16.1,331.79,17.39,333.56,19.97z M330.26,23.43c-0.91-1.95-2.2-2.93-3.86-2.93
				c-1.63,0-2.92,0.98-3.88,2.95c-0.95,1.97-1.43,4.2-1.43,6.71c0,2.54,0.48,4.78,1.43,6.73c0.95,1.95,2.24,2.93,3.88,2.93
				c1.66,0,2.95-0.97,3.86-2.91c0.91-1.93,1.37-4.19,1.37-6.75C331.63,27.62,331.17,25.38,330.26,23.43z M342.43,51.04V13.45h4.62
				v37.59H342.43z"/>
			<path style="fill:#FFFFFF;" d="M385.44,21.78v-8.33h4.66v27.17h-4.66V26.4h-6.83c-0.46,2.14-1.56,3.92-3.31,5.34
				c-1.75,1.42-3.86,2.14-6.33,2.14c-2.87,0-5.22-0.94-7.07-2.82c-1.85-1.88-2.77-4.15-2.77-6.79c0-2.65,0.92-4.92,2.77-6.81
				c1.85-1.89,4.2-2.84,7.07-2.84c2.41,0,4.48,0.68,6.2,2.05c1.73,1.37,2.84,3.08,3.35,5.13H385.44z M365.22,20.5
				c-0.87,1.05-1.31,2.31-1.31,3.76c0,1.42,0.44,2.66,1.31,3.72c0.87,1.05,2.12,1.58,3.75,1.58c1.66,0,2.92-0.53,3.79-1.58
				c0.87-1.06,1.3-2.29,1.3-3.72c0-1.45-0.44-2.71-1.3-3.76c-0.87-1.05-2.14-1.58-3.79-1.58C367.34,18.92,366.09,19.45,365.22,20.5z
				 M364.43,50.19V38.14h4.82v7.73h21.64v4.31H364.43z"/>
			<path style="fill:#FFFFFF;" d="M401.22,46.26v-4.32h35.34v4.32H401.22z M416.98,29.49c-0.92,0.98-2,1.97-3.23,2.97
				c-1.31,1.06-2.68,1.93-4.12,2.63c-1.43,0.7-2.58,1.2-3.43,1.52l-3.01-3.46c1.26-0.48,2.68-1.17,4.28-2.05
				c1.59-0.88,3.13-1.98,4.6-3.29c1.39-1.25,2.44-2.7,3.13-4.36c0.7-1.65,1.04-3.36,1.04-5.13v-2.78h5.3v2.78
				c0,1.77,0.35,3.48,1.04,5.13c0.7,1.65,1.74,3.11,3.13,4.36c1.5,1.31,3.04,2.41,4.62,3.29c1.58,0.88,3,1.57,4.26,2.05l-3.01,3.46
				c-0.86-0.32-2-0.82-3.43-1.52c-1.43-0.7-2.8-1.57-4.12-2.63c-1.23-1-2.3-1.99-3.19-2.97c-0.9-0.98-1.55-1.91-1.95-2.8
				C418.54,27.58,417.9,28.51,416.98,29.49z"/>
		</g>
	</g>
</g>
</svg>
