<?xml version="1.0" encoding="utf-8"?>
<!-- Generator: Adobe Illustrator 24.2.0, SVG Export Plug-In . SVG Version: 6.00 Build 0)  -->
<svg version="1.1" id="레이어_1" xmlns="http://www.w3.org/2000/svg" xmlns:xlink="http://www.w3.org/1999/xlink" x="0px"
	 y="0px" viewBox="0 0 302.92 63.48" style="enable-background:new 0 0 302.92 63.48;" xml:space="preserve">
<path style="fill:#FFFFFF;" d="M0,54.94V9.54v-0.5h159.3v45.9H0z M1,53.93h157.3v-43.9H1L1,53.93z M0.5,10.04v-0.5V10.04z"/>
<path style="fill:#FFFFFF;" d="M27.1,18.58h11.14v1.62c-2.75,0.11-4.56,1.3-6.47,3.19l-5.13,5.09l8.75,12.66
	c0.87,1.26,1.49,1.7,2.06,1.77c0.54,0.07,1.48,0.15,2.24,0.15v1.63H27.38v-1.63h2.02c1.12,0,1.7-0.11,1.7-0.69
	c0-0.54-0.47-1.23-0.9-1.88l-6.33-9.18l-4.23,4.37v5.53c0,1.44,0.61,1.85,2.03,1.85h1.99v1.63H11.69v-1.63h1.99
	c1.41,0,2.02-0.4,2.02-1.85V22.05c0-1.45-0.61-1.85-2.02-1.85h-1.99v-1.62h11.97v1.62h-1.99c-1.41,0-2.03,0.4-2.03,1.85v11.03
	l9.55-9.62c0.61-0.61,1.19-1.52,1.19-2.13c0-0.72-0.65-1.12-2.6-1.12H27.1V18.58z"/>
<path style="fill:#FFFFFF;" d="M57.58,18.58h10.08v1.62c-3.72,0.11-4.08,1.77-4.08,5.1v9.69c0,6.76-3.29,10.23-9.95,10.23
	c-5.43,0-10.19-2.28-10.19-7.59V22.05c0-1.45-0.62-1.85-2.03-1.85h-2.06v-1.62h12.04v1.62H49.4c-1.41,0-2.02,0.4-2.02,1.85v13.6
	c0,2.89,0.29,4.59,1.84,5.96c1.48,1.34,3.07,1.81,5.46,1.81c3.9,0,7.09-2.79,7.09-7.12V25.3c0-3.32-0.36-4.99-4.19-5.1V18.58z"/>
<path style="fill:#FFFFFF;" d="M81.61,32.55c-1.37,0.02-2.09,0.04-2.19,0.04c-0.29,0.01-0.52-0.05-0.67-0.18
	c-0.16-0.13-0.24-0.32-0.24-0.57v-1.82c0-0.21,0.01-0.44,0.04-0.69c0.02-0.25,0.04-0.45,0.05-0.59l-2.45-0.3l-0.22,0.42
	c0.62,0.18,0.99,0.36,1.12,0.52c0.13,0.16,0.2,0.51,0.2,1.03v2.13c0,0.24,0.07,0.43,0.22,0.57c0.15,0.14,0.38,0.22,0.71,0.22
	c0.09-0.01,0.84-0.04,2.24-0.09c1.41-0.05,3.03-0.02,4.86,0.07l0.09-1C84.22,32.45,82.98,32.53,81.61,32.55"/>
<path style="fill:#FFFFFF;" d="M81.19,23.25c-0.35,0-0.73-0.02-1.13-0.07c-0.41-0.05-0.69-0.07-0.85-0.09l-0.23,0.35l1.98,0.88
	c0.22-0.13,0.42-0.21,0.58-0.26c0.17-0.05,0.33-0.07,0.48-0.09c0.15-0.02,0.36-0.04,0.62-0.04c0.17-0.01,0.48-0.01,0.67-0.01v4.34
	l0.15,1.63h0.72c0.06-0.2,0.13-0.52,0.2-0.96c0.08-0.44,0.11-0.84,0.11-1.19l0.07-8.65c0-0.22,0.01-0.47,0.03-0.75
	c0.02-0.28,0.04-0.49,0.05-0.65l-2.4-0.58l-0.37,0.45c0.49,0.19,0.84,0.39,1.06,0.6c0.22,0.22,0.33,0.52,0.33,0.92l0.02,4.09
	c-0.21,0.01-0.5,0.03-0.87,0.05C82.06,23.24,81.64,23.25,81.19,23.25"/>
<path style="fill:#FFFFFF;" d="M77.49,24.69c1.53-1.64,2.53-3.34,3-5.1l-1.57-0.19c-0.17,0.19-0.52,0.31-1.06,0.36
	c-0.54,0.05-1.27,0.08-2.2,0.08c-0.35,0-0.78-0.03-1.3-0.08c-0.51-0.05-0.86-0.09-1.04-0.11l-0.3,0.4l2.22,0.91
	c0.19-0.14,0.36-0.24,0.5-0.31c0.15-0.06,0.33-0.1,0.54-0.11c0.19-0.03,0.53-0.05,1-0.08c0.37-0.02,0.73-0.04,1.11-0.06
	c0.15-0.01,0.32-0.07,0.2,0.25c-0.49,1.34-1.29,2.65-2.37,3.95c-1.15,1.38-2.4,2.44-3.75,3.16l0.4,0.28
	C74.41,27.44,75.96,26.33,77.49,24.69"/>
<path style="fill:#FFFFFF;" d="M97.88,19.31c-0.72,0.02-1.62,0.04-2.69,0.08c-1.16,0.03-1.86,0.06-2.09,0.09
	c-0.15,0.01-0.31,0.04-0.49,0.08c-0.18,0.04-0.37,0.15-0.6,0.31l-2.2-0.82l0.28-0.45c0.19,0.02,0.51,0.06,0.98,0.11
	c0.47,0.05,0.87,0.08,1.21,0.08c1.96,0,3.38-0.02,4.24-0.05c0.87-0.04,1.41-0.17,1.63-0.42l1.5,0.23c-0.16,0.96-0.42,1.97-0.77,3.03
	c-0.35,1.06-0.69,1.92-1.01,2.57c0.73-0.03,1.47-0.08,2.21-0.13c0.74-0.05,1.42-0.11,2.02-0.18l-0.15,1.14
	c-0.87-0.06-1.91-0.1-3.13-0.12c-1.23-0.02-2.4-0.03-3.52-0.03v3.41c0.7-0.02,1.24-0.06,1.61-0.12c0.37-0.06,0.63-0.15,0.77-0.28
	l1.34,0.12l-0.07,0.73l-0.02,3.32c0,0.32-0.04,0.67-0.12,1.07c-0.08,0.4-0.15,0.69-0.21,0.89h-0.7L97.7,32.4l-0.03-3.29
	c0-0.19-0.05-0.25-0.22-0.25c-0.7,0-1.53,0.01-2.47,0.02c-1.05,0.01-1.69,0.04-1.92,0.07c-0.16,0.01-0.32,0.04-0.5,0.09
	c-0.18,0.05-0.38,0.14-0.59,0.29l-2.22-0.89L90,28.06c0.19,0.01,0.52,0.04,1,0.11c0.48,0.05,0.89,0.09,1.24,0.09h1.75v-3.41
	c-0.8,0.01-1.46,0.04-1.97,0.09c-0.5,0.05-0.85,0.08-1.04,0.11c-0.16,0.01-0.35,0.05-0.56,0.11c-0.21,0.06-0.42,0.16-0.61,0.3
	l-2.73-0.91L87.43,24c0.21,0.02,0.63,0.07,1.27,0.15c0.63,0.08,1.14,0.11,1.51,0.11c0.62,0,1.35-0.01,2.2-0.03
	c0.84-0.02,1.78-0.03,2.81-0.03c0.3,0,0.62,0,0.96,0c0.34-0.01,0.68-0.01,1.03-0.03c0.19-0.62,0.36-1.39,0.51-2.32
	c0.14-0.86,0.23-1.64,0.32-2.35C98.05,19.36,98.04,19.31,97.88,19.31"/>
<path style="fill:#FFFFFF;" d="M105.36,21.87v4.9c0,0.3,0.08,0.48,0.25,0.57c0.16,0.09,0.35,0.13,0.58,0.11
	c0.7-0.06,1.49-0.19,2.35-0.39c0.87-0.2,1.65-0.42,2.36-0.68v-6.54c0-0.4-0.09-0.71-0.26-0.93c-0.17-0.22-0.48-0.42-0.93-0.61
	l0.3-0.39l2.22,0.54c-0.01,0.15-0.03,0.37-0.06,0.66c-0.03,0.28-0.05,0.54-0.05,0.76l-0.02,4.67h2.56l-0.02-5.5
	c0-0.4-0.08-0.7-0.25-0.93c-0.16-0.22-0.47-0.42-0.92-0.61l0.3-0.38l2.21,0.54c-0.01,0.15-0.03,0.37-0.05,0.65
	c-0.02,0.29-0.03,0.54-0.03,0.77l-0.04,12.65c0,0.34-0.04,0.74-0.13,1.22c-0.09,0.47-0.15,0.81-0.2,1h-0.67l-0.17-1.73l-0.02-6.86
	h-2.56l-0.02,5.67c0,0.34-0.04,0.74-0.12,1.22c-0.08,0.47-0.15,0.81-0.21,1.01h-0.66l-0.18-1.73l-0.01-4.59
	c-0.75,0.38-1.64,0.77-2.69,1.15c-1.04,0.38-2.03,0.59-2.95,0.64c-0.33,0.01-0.6-0.04-0.81-0.17c-0.21-0.12-0.31-0.38-0.31-0.76
	v-5.34c0-0.43-0.09-0.73-0.26-0.9c-0.18-0.16-0.51-0.33-1-0.51l0.24-0.38l2.15,0.23c0.4-0.01,0.92-0.04,1.57-0.07
	c0.65-0.04,1.35-0.08,2.13-0.16l-0.18,1.01c-0.82-0.05-1.5-0.06-2.06-0.06c-0.47,0-0.87,0.01-1.2,0.03
	C105.41,21.68,105.36,21.71,105.36,21.87"/>
<path style="fill:#FFFFFF;" d="M130.02,17.67c-0.01,0.16-0.03,0.38-0.07,0.65c-0.03,0.27-0.05,0.52-0.05,0.75l-0.03,3.25
	c0.43-0.01,0.92-0.03,1.47-0.07c0.55-0.03,1.09-0.09,1.63-0.16l-0.13,1.19c-0.5-0.04-1-0.06-1.52-0.07
	c-0.52-0.01-1.01-0.02-1.43-0.03v1.89c0,0.34-0.05,0.73-0.13,1.17c-0.08,0.44-0.15,0.76-0.21,0.96h-0.68l-0.16-1.63l-0.07-6.51
	c0-0.39-0.1-0.69-0.32-0.91c-0.21-0.22-0.56-0.43-1.05-0.62l0.37-0.44L130.02,17.67z M126.61,21.58c-0.68-0.06-1.32-0.09-1.92-0.1
	c-0.6-0.01-1.31-0.01-2.13-0.01c-0.59,0-1.04,0.03-1.33,0.08c-0.31,0.05-0.54,0.09-0.74,0.11c-0.12,0.01-0.25,0.04-0.41,0.09
	c-0.16,0.05-0.33,0.12-0.52,0.23l-1.91-0.86l0.24-0.38c0.18,0.02,0.46,0.06,0.87,0.11c0.4,0.05,0.77,0.08,1.11,0.08
	c0.5,0,0.95-0.01,1.34-0.03c0.39-0.02,0.85-0.03,1.38-0.04c0.69-0.01,1.38-0.04,2.04-0.08c0.67-0.04,1.36-0.1,2.07-0.18
	L126.61,21.58z M124.55,19.57c-0.34-0.02-0.64-0.04-0.89-0.04c-0.25,0-0.62,0.01-1.11,0.04c-0.14,0.01-0.28,0.03-0.43,0.05
	c-0.14,0.02-0.3,0.06-0.48,0.12l-1.68-1.07l0.37-0.42c0.13,0.04,0.35,0.09,0.66,0.15c0.31,0.06,0.67,0.12,1.08,0.19
	c0.36,0.04,0.79,0.07,1.27,0.08c0.49,0.02,0.94,0.01,1.35-0.01L124.55,19.57z M124.56,22.93c0.88,0.26,1.31,0.91,1.31,1.96
	c0,0.75-0.33,1.37-0.98,1.86c-0.65,0.5-1.43,0.74-2.34,0.74c-0.89,0-1.66-0.25-2.32-0.74c-0.66-0.5-0.99-1.12-0.99-1.86
	c0-1.05,0.42-1.7,1.27-1.96c0.85-0.25,1.27-0.39,1.29-0.4c0.12-0.09,0.15-0.19,0.1-0.29c-0.05-0.1-0.14-0.21-0.28-0.34l0.26-0.31
	l1.4,0.28l-0.12,0.66C123.22,22.54,123.69,22.68,124.56,22.93 M124.07,26.17c0.37-0.35,0.56-0.78,0.56-1.28
	c0-0.49-0.19-0.91-0.56-1.28c-0.37-0.36-0.88-0.54-1.52-0.54c-0.6,0-1.1,0.18-1.49,0.54c-0.38,0.36-0.58,0.79-0.58,1.28
	c0,0.5,0.2,0.93,0.58,1.28c0.39,0.36,0.89,0.54,1.49,0.54C123.19,26.71,123.7,26.53,124.07,26.17 M128.26,29.27
	c-0.73,0-1.56,0-2.49,0.02c-1.01,0.01-1.63,0.03-1.86,0.05c-0.17,0.01-0.33,0.04-0.52,0.09c-0.18,0.05-0.38,0.15-0.58,0.32
	l-2.24-0.88l0.29-0.4c0.19,0.02,0.52,0.06,0.98,0.11c0.46,0.05,0.88,0.08,1.22,0.08c0.6,0,1.54-0.01,2.84-0.04
	c1.3-0.03,2.11-0.14,2.42-0.33h1.38l-0.02,3.57c0,0.29-0.04,0.66-0.12,1.11c-0.08,0.45-0.15,0.77-0.21,0.97h-0.73l-0.17-1.64
	l-0.02-2.83C128.45,29.3,128.4,29.27,128.26,29.27"/>
<path style="fill:#FFFFFF;" d="M144.21,20.24c-0.73,0.06-1.72,0.06-2.95,0.09c-1.33,0.04-2.1,0.07-2.33,0.1
	c-0.15,0.01-0.32,0.04-0.49,0.08c-0.17,0.04-0.37,0.14-0.59,0.31l-2.33-0.84l0.31-0.47c0.19,0.02,0.53,0.07,1.02,0.12
	c0.49,0.06,0.91,0.09,1.26,0.09c2.27,0,3.84-0.02,4.71-0.05c0.87-0.03,1.41-0.18,1.59-0.44l1.52,0.23c-0.12,1.29-0.36,2.7-0.73,4.23
	c-0.38,1.53-0.76,2.74-1.17,3.62l-0.55-0.12c0.22-0.87,0.42-1.98,0.59-3.31c0.16-1.27,0.3-2.42,0.3-3.46
	C144.37,20.28,144.32,20.23,144.21,20.24 M147.78,30.42c-0.89-0.06-1.95-0.1-3.2-0.11c-1.25-0.02-2.44-0.03-3.57-0.03
	c-1.13,0-2.04,0.03-2.71,0.09c-0.68,0.06-1.12,0.1-1.35,0.13c-0.16,0.01-0.35,0.05-0.56,0.12c-0.21,0.06-0.41,0.16-0.61,0.29
	l-2.73-0.93l0.35-0.5c0.21,0.02,0.63,0.07,1.27,0.13c0.64,0.07,1.14,0.1,1.52,0.1h0.71c0.25,0,0.53-0.01,0.83-0.02v-3.62
	c0-0.48-0.04-0.81-0.13-0.98c-0.08-0.18-0.38-0.36-0.86-0.54l0.26-0.38l2.01,0.3c-0.01,0.16-0.03,0.38-0.05,0.64
	c-0.02,0.26-0.04,0.51-0.04,0.74v3.83c0.35-0.01,0.7-0.02,1.06-0.02h1.13h0.07v-3.95c0-0.48-0.05-0.81-0.13-0.98
	c-0.09-0.17-0.37-0.35-0.85-0.52l0.3-0.4l1.99,0.3c-0.01,0.15-0.03,0.36-0.05,0.64c-0.03,0.28-0.04,0.52-0.04,0.73v4.18
	c0.92-0.02,1.88-0.06,2.86-0.12c0.98-0.05,1.88-0.13,2.67-0.21L147.78,30.42z"/>
<path style="fill:#FFFFFF;" d="M77.28,38.08h2.9v0.42c-0.71,0.03-1.19,0.34-1.69,0.83l-1.33,1.33l2.28,3.29
	c0.23,0.33,0.39,0.45,0.54,0.46c0.14,0.02,0.39,0.04,0.58,0.04v0.42h-3.2v-0.42h0.53c0.29,0,0.44-0.03,0.44-0.18
	c0-0.13-0.12-0.32-0.24-0.49l-1.65-2.39l-1.1,1.14v1.44c0,0.38,0.16,0.48,0.53,0.48h0.51v0.42h-3.11v-0.42h0.51
	c0.37,0,0.53-0.11,0.53-0.48v-4.99c0-0.38-0.15-0.48-0.53-0.48h-0.51v-0.42h3.11v0.42h-0.51c-0.37,0-0.53,0.11-0.53,0.48v2.87
	l2.48-2.5c0.16-0.16,0.31-0.39,0.31-0.56c0-0.19-0.17-0.29-0.68-0.29h-0.18V38.08z"/>
<path style="fill:#FFFFFF;" d="M86.02,41.48c0,1.37-0.32,3.12-2.02,3.12c-1.94,0-2.04-2.17-2.04-3.12c0-1.37,0.32-3.12,2.03-3.12
	C85.91,38.36,86.02,40.53,86.02,41.48 M87.22,41.48c0-1.82-1.29-3.54-3.25-3.54c-2.19,0-3.23,2.14-3.23,3.54
	c0,1.82,1.29,3.54,3.25,3.54C86.18,45.02,87.22,42.88,87.22,41.48"/>
<path style="fill:#FFFFFF;" d="M92.44,38.08h2.65v0.42c-0.46,0.04-0.79,0.12-0.91,0.38C94.06,39.14,94,39.45,94,39.95v5.07h-0.38
	l-4.17-5.77h-0.02v4.09c0,0.77,0.09,1.08,1.1,1.12v0.42h-2.66v-0.42c0.84-0.03,1.09-0.35,1.09-1.11v-4.53
	c-0.21-0.27-0.44-0.31-0.95-0.31h-0.14v-0.42h1.94l3.7,5.07h0.02v-3.32c0-0.87-0.09-1.3-1.09-1.33V38.08z"/>
<path style="fill:#FFFFFF;" d="M99.6,38.08h2.9v0.42c-0.72,0.03-1.19,0.34-1.69,0.83l-1.34,1.33l2.28,3.29
	c0.22,0.33,0.38,0.45,0.53,0.46c0.14,0.02,0.39,0.04,0.58,0.04v0.42h-3.2v-0.42h0.53c0.29,0,0.44-0.03,0.44-0.18
	c0-0.13-0.12-0.32-0.23-0.49l-1.65-2.39l-1.1,1.14v1.44c0,0.38,0.16,0.48,0.53,0.48h0.52v0.42h-3.11v-0.42h0.52
	c0.37,0,0.53-0.11,0.53-0.48v-4.99c0-0.38-0.16-0.48-0.53-0.48h-0.52v-0.42h3.11v0.42h-0.52c-0.37,0-0.53,0.11-0.53,0.48v2.87
	l2.48-2.5c0.16-0.16,0.31-0.39,0.31-0.56c0-0.19-0.17-0.29-0.67-0.29H99.6V38.08z"/>
<path style="fill:#FFFFFF;" d="M107.54,38.08h2.63v0.42c-0.97,0.03-1.06,0.46-1.06,1.33v2.52c0,1.76-0.86,2.66-2.59,2.66
	c-1.41,0-2.66-0.59-2.66-1.98v-4.06c0-0.38-0.16-0.48-0.53-0.48h-0.54v-0.42h3.13v0.42h-0.51c-0.37,0-0.53,0.11-0.53,0.48v3.54
	c0,0.76,0.07,1.2,0.48,1.55c0.38,0.35,0.8,0.47,1.42,0.47c1.02,0,1.85-0.72,1.85-1.85v-2.86c0-0.87-0.09-1.3-1.09-1.33V38.08z"/>
<path style="fill:#FFFFFF;" d="M114.6,38.08h2.9v0.42c-0.72,0.03-1.19,0.34-1.69,0.83l-1.34,1.33l2.28,3.29
	c0.23,0.33,0.38,0.45,0.54,0.46c0.14,0.02,0.38,0.04,0.58,0.04v0.42h-3.2v-0.42h0.53c0.29,0,0.44-0.03,0.44-0.18
	c0-0.13-0.13-0.32-0.24-0.49l-1.65-2.39l-1.1,1.14v1.44c0,0.38,0.16,0.48,0.53,0.48h0.51v0.42h-3.11v-0.42h0.52
	c0.37,0,0.53-0.11,0.53-0.48v-4.99c0-0.38-0.16-0.48-0.53-0.48h-0.52v-0.42h3.11v0.42h-0.51c-0.37,0-0.53,0.11-0.53,0.48v2.87
	l2.49-2.5c0.16-0.16,0.31-0.39,0.31-0.56c0-0.19-0.17-0.29-0.68-0.29h-0.18V38.08z"/>
<path style="fill:#FFFFFF;" d="M125.16,38.08h2.63v0.42c-0.97,0.03-1.06,0.46-1.06,1.33v2.52c0,1.76-0.86,2.66-2.59,2.66
	c-1.42,0-2.66-0.59-2.66-1.98v-4.06c0-0.38-0.16-0.48-0.52-0.48h-0.54v-0.42h3.14v0.42h-0.52c-0.37,0-0.53,0.11-0.53,0.48v3.54
	c0,0.76,0.07,1.2,0.48,1.55c0.39,0.35,0.8,0.47,1.42,0.47c1.02,0,1.84-0.72,1.84-1.85v-2.86c0-0.87-0.1-1.3-1.09-1.33V38.08z"/>
<path style="fill:#FFFFFF;" d="M132.73,38.08h2.65v0.42c-0.46,0.04-0.79,0.12-0.91,0.38c-0.13,0.25-0.18,0.57-0.18,1.07v5.07h-0.38
	l-4.17-5.77h-0.02v4.09c0,0.77,0.09,1.08,1.1,1.12v0.42h-2.66v-0.42c0.84-0.03,1.09-0.35,1.09-1.11v-4.53
	c-0.21-0.27-0.44-0.31-0.95-0.31h-0.14v-0.42h1.94l3.7,5.07h0.01v-3.32c0-0.87-0.09-1.3-1.09-1.33V38.08z"/>
<path style="fill:#FFFFFF;" d="M135.97,44.46h0.52c0.37,0,0.53-0.11,0.53-0.48v-4.99c0-0.38-0.16-0.48-0.53-0.48h-0.52v-0.42h3.11
	v0.42h-0.51c-0.37,0-0.53,0.11-0.53,0.48v4.99c0,0.38,0.16,0.48,0.53,0.48h0.51v0.42h-3.11V44.46z"/>
<path style="fill:#FFFFFF;" d="M139.37,38.08h2.93v0.42h-0.48c-0.33,0-0.47,0.08-0.47,0.26c0,0.13,0.07,0.29,0.12,0.43l1.69,4.29
	l1.4-3.73c0.16-0.43,0.2-0.59,0.2-0.77c0-0.44-0.6-0.48-0.96-0.48v-0.42h2.52v0.42c-0.67,0-0.83,0.2-1.09,0.88l-2.18,5.6h-0.38
	l-2.32-5.8c-0.26-0.64-0.3-0.67-0.99-0.67V38.08z"/>
<path style="fill:#FFFFFF;" d="M146.37,43.86c0.32,0,0.59,0.26,0.59,0.58c0,0.32-0.27,0.58-0.59,0.58c-0.32,0-0.58-0.26-0.58-0.58
	C145.79,44.12,146.05,43.86,146.37,43.86"/>
<path style="fill:#FFFFFF;" d="M302.89,53.32v8.38c0,0-19.44,7.58-33.24-8.55C269.66,53.15,286.3,67.22,302.89,53.32"/>
<path style="fill:#FFFFFF;" d="M182.21,5.95v9.27c0,0,25.73-23.23,62.85,0C245.06,15.22,217.6-11.59,182.21,5.95"/>
<path style="fill:#FFFFFF;" d="M241.4,29.6c-2.17,0.03-6.91,0-6.91,0c2.54-3.06,3.76-6.69,4.01-8.47c0.25-1.79-0.26-2.15-1.79-2.15
	h-14.83h-2.43c-0.68,0-1.23-0.17-1.45-0.22c-0.22-0.05-0.56-0.16-0.47,0.22c0.09,0.38,0.72,1.98,2.31,2.02l1.59,0.03
	c1.19,0.01,10.4,0,11.16,0c0.76,0,1.36,0.38,1.36,1.53c0,1.15-0.19,3.91-1.72,6.93c0,0-16.72,0.03-17.68,0
	c-0.65-0.02-1.13-0.09-1.66-0.2c-0.53-0.11-0.61,0.02-0.47,0.4c0.15,0.38,0.97,2.15,2.48,2.14l1.02,0.03h7.35
	c1,0,1.66,0.32,1.66,1.03v4.24h-7.12c-0.92,0-1.51-0.24-1.68-0.3c-0.16-0.06-0.58-0.09-0.39,0.35c0.19,0.44,0.69,2.04,2.37,2.08
	l1.61,0.03H232c0.99,0,1.47,0.01,1.46,1.93c-0.01,1.91-0.22,4.21-0.49,5.65c-0.34,1.79,0.45,2.36,2.17,0.75
	c2.26-2.11,2.54-7.56,2.52-9.29c-0.01-1-0.05-1.2-1.36-1.2h-7.57v-4.06c0-0.68,0.43-1.24,1.51-1.24h9.38
	C241.47,31.83,243.1,29.58,241.4,29.6"/>
<path style="fill:#FFFFFF;" d="M194.67,29.15h2.92h4.38c1.1,0,1.22,0.38,1.22,0.79v8.79c0,1-0.03,2.37,1.12,1.91
	c1.15-0.46,2.77-2.62,2.77-3.87l-0.05-17.87c0-0.71-0.74-0.9-1.15-0.96c-0.41-0.06-2.09-0.29-3.22-0.46
	c-1.13-0.16-0.5,0.72-0.21,1.19c0.3,0.47,0.76,1.06,0.76,2.05v5.2c0,0.9-0.66,1.03-1.15,1.03h-5.59c1.7-2.32,2.23-3.93,2.54-4.79
	c0.38-1.06-0.21-2.03-1.71-2.03c-1.5,0-11.5,0.06-12.56,0.02c-1.07-0.04-1.39-0.21-1.39-0.21s-0.65-0.26-0.41,0.35
	c0.17,0.42,0.8,1.9,2.2,1.9c1.41,0,6.58-0.02,7.51-0.01c0.93,0.02,1.57,0.63,1.18,1.61c-0.29,0.75-1.21,2.89-4.37,6.46
	c-3.17,3.57-6.28,5.16-6.28,5.16s-1.44,0.91-0.8,1.02c0.65,0.11,1.71,0.15,3.44-0.65C189.36,34.18,191.92,32.22,194.67,29.15
	 M207.1,45.5c-1.36,0-10.1,0.02-11.73,0c-1.63-0.02-2.17-0.72-2.17-1.76v-4.86c0-0.08,0.07-0.5-0.14-0.82
	c-0.21-0.32-0.56-0.48-1.23-0.54c-0.67-0.06-1.13-0.1-2.05-0.26c-0.73-0.13-1.45-0.32-1.64-0.11c-0.09,0.09-0.14,0.31,0.29,0.97
	c0.4,0.62,0.84,1.04,0.84,2.15v4.16c0,1.34,0.91,2.96,2.79,2.96c1.89,0,11.93,0.02,13.07,0c1.14-0.02,1.46,0.02,2.49-0.6
	C208.66,46.19,208.47,45.5,207.1,45.5"/>
<path style="fill:#FFFFFF;" d="M301.6,17.3c-1.01-0.16-2.42-0.37-2.99-0.44c-0.58-0.07-1-0.04-0.63,0.62
	c0.37,0.65,1.1,1.66,1.08,2.52c-0.01,0.86-0.02,3.85-0.02,3.85c0,0.89-0.66,1.03-1.15,1.03h-3.81c-0.61-3.43-3.83-6.06-7.73-6.06
	c-4.33,0-7.85,3.23-7.85,7.22c0,3.99,3.51,7.22,7.85,7.22c3.95,0,7.21-2.69,7.76-6.18h3.69c1.1,0,1.22,0.38,1.22,0.79v4.94
	c0,1-0.02,2.37,1.12,1.91c1.15-0.46,2.78-2.62,2.78-3.88V18.68C302.92,17.77,302.61,17.46,301.6,17.3 M286.36,30.93
	c-2.22,0-4.02-2.19-4.02-4.9c0-2.7,1.8-4.9,4.02-4.9c2.22,0,4.02,2.19,4.02,4.9C290.38,28.74,288.58,30.93,286.36,30.93
	 M301.77,36.11c-0.71-0.08-2.14-0.3-2.9-0.42c-0.77-0.12-1.47-0.2-0.87,0.76c0.6,0.95,0.91,1.4,0.94,2.21c0.04,0.81,0,1.13,0,1.13
	h-10.45v-2.77c0-0.45-0.54-0.8-1.21-0.9c-0.68-0.11-2.74-0.41-3.04-0.44c-0.5-0.05-1.28-0.15-0.78,0.65c0.5,0.8,0.74,1.13,0.91,1.64
	c0.16,0.52,0.11,0.88,0.11,1.23v5.96c0,1.99,1.27,2.6,3.03,2.6c1.76,0,11.45,0.02,11.45,0.02s0,1.29,0.53,1.53
	c0.54,0.25,1.49-0.58,2-1.05c0.5-0.47,1.43-1.24,1.43-2.75v-8.26C302.9,36.5,302.47,36.18,301.77,36.11 M298.93,45.91h-9.02
	c-1.27,0-1.45-0.77-1.45-1.44v-2.56h10.47V45.91z"/>
<path style="fill:#FFFFFF;" d="M272.98,33.83c0.92,0,1.32,0.61,0.42,1.44c-0.9,0.83-1.79,0.87-2.36,0.87h-3.88
	c-0.66,0-1.18,0.35-1.18,1.14v7.47c0,1.2-0.74,3.02-2.25,3.74c-1.51,0.73-1.47-0.42-1.47-1.23V37.3c0-0.73-0.31-1.14-1.23-1.14
	h-3.48c-0.61,0-1.01,0.35-1.01,0.99v7.61c0,1.62-1.11,3.12-2.24,3.76c-1.13,0.64-1.51,0.16-1.51-1.14V37.16
	c0-0.87-0.55-0.99-1.32-0.99h-3.45c-0.82,0-1.7,0.15-2.68-0.57c-0.46-0.34-0.97-1.22-1.12-1.73c-0.15-0.51,0.47-0.28,0.65-0.23
	c0.19,0.04,0.58,0.18,2.34,0.2C248.98,33.85,272.98,33.83,272.98,33.83"/>
<path style="fill:#FFFFFF;" d="M259.3,17.71c-5.44,0-9.84,3.06-9.84,6.83c0,3.77,4.41,6.83,9.84,6.83c5.43,0,9.84-3.06,9.84-6.83
	C269.14,20.77,264.73,17.71,259.3,17.71 M259.3,29.29c-3.33,0-6.03-2.13-6.03-4.75c0-2.62,2.7-4.75,6.03-4.75
	c3.33,0,6.03,2.12,6.03,4.75C265.33,27.16,262.63,29.29,259.3,29.29"/>
</svg>
