<?xml version="1.0" encoding="utf-8"?>
<!-- Generator: Adobe Illustrator 24.2.0, SVG Export Plug-In . SVG Version: 6.00 Build 0)  -->
<svg version="1.1" xmlns="http://www.w3.org/2000/svg" xmlns:xlink="http://www.w3.org/1999/xlink" x="0px" y="0px"
	 viewBox="0 0 60.06 28.73" style="enable-background:new 0 0 60.06 28.73;" xml:space="preserve">
<g id="디자인">
	<g>
		<g>
			<g>
				<g>
					<polygon style="fill:#FFFFFF;" points="44.92,0.63 44.92,5.12 41.28,0.63 40.15,0.63 37.28,0.63 37.22,0.63 37.22,9.87 
						40.15,9.87 40.15,4.18 44.77,9.87 44.92,9.87 47.55,9.87 47.81,9.87 47.81,0.63 					"/>
					<g>
						<rect y="0.69" style="fill:#FFFFFF;" width="3.22" height="9.18"/>
						<path style="fill:#FFFFFF;" d="M19.62,0.69h-3.46v0h-3.18v9.18h3.18v-6.9h1.79c0,0,2.31-0.07,2.31,2.31
							c0,2.38-2.09,2.41-2.09,2.41h-1.63v2.19h3.01c4.06,0,4.1-4.62,4.1-4.62C23.66,1.16,19.62,0.69,19.62,0.69z"/>
						<polygon style="fill:#FFFFFF;" points="8.54,0.69 5.32,0.69 5.32,7.62 5.32,9.87 8.54,9.87 12.41,9.87 12.41,7.62 8.54,7.62 
													"/>
					</g>
					<path style="fill:#FFFFFF;" d="M27.6,5.2c0-1.57,1.25-2.85,2.79-2.85c1.54,0,2.78,1.28,2.78,2.85s-1.25,2.84-2.78,2.84
						C28.85,8.04,27.6,6.77,27.6,5.2z M24.13,5.49c0,5.04,6.3,4.91,6.3,4.91s6.22,0.39,6.22-5.14c0-5.52-6.15-5.26-6.15-5.26
						C29.13,0.01,24.13,0.45,24.13,5.49z"/>
					<path style="fill:#FFFFFF;" d="M56.83,3.68h3.23V3.23c0,0-0.24-3.23-5.5-3.23c-5.26,0-6.1,3.15-6.1,5.16
						c0,2.01,0.96,4.98,5.83,4.98c0,0,2.39,0.2,5.18-1.32V4.38h-5.24v1.95h2.13V7.5c0,0-0.04,0.51-1.48,0.51
						c-1.45,0-2.97-0.74-2.97-2.89c0-2.15,1.22-2.95,2.76-2.95C54.68,2.17,56.83,2.19,56.83,3.68z"/>
					<path style="fill:#FFFFFF;" d="M19.72,15.15c0,0,3.17-4.2,10.91-4.2c7.75,0,10.59,4.2,10.59,4.2H19.72z"/>
				</g>
				<g>
					<g>
						<line style="fill:#FFFFFF;" x1="31.25" y1="19.9" x2="34.11" y2="19.9"/>
					</g>
					<polygon style="fill:#FFFFFF;" points="36.17,24.67 25.38,24.67 25.38,25.99 29.65,25.99 29.65,28.4 31.82,28.4 31.82,25.99 
						36.17,25.99 					"/>
					<rect x="48.7" y="26.42" style="fill:#FFFFFF;" width="9.86" height="1.32"/>
					<path style="fill:#FFFFFF;" d="M54.17,20.23c0.4-1.01,0.35-1.82,0.35-1.82h-2.13c0,3.57-4,4.41-4,4.41v1.07
						c2.91-0.36,4.44-1.51,5.25-2.67c1.99,0.64,2.79,2.86,2.79,2.86h2.27C57.69,21.44,55.16,20.5,54.17,20.23z"/>
					<path style="fill:#FFFFFF;" d="M4.72,26.88v-0.93l7.31-0.02v-7.39H9.86v4.53H5.44c-1,0-1.81-0.81-1.81-1.81
						c0-1,0.81-1.81,1.81-1.81c1,0,1.81,0.81,1.81,1.81c0,0.59-0.29,1.12-0.73,1.45h2.12c0.36-0.47,0.56-1.02,0.56-1.6
						c0-1.72-1.75-3.11-3.91-3.11c-2.16,0-3.92,1.39-3.92,3.11c0,1.72,1.75,3.11,3.92,3.11h4.58v0.57l-7.47-0.02l0.01,2.11
						c0.1,0.53,0.52,0.93,1.04,1.01h8.62v-1.01H4.72z"/>
					<g>
						<path style="fill:#FFFFFF;" d="M17.16,23h-4.09v1.01h2.21c-0.53,0.49-0.84,1.08-0.84,1.72c0,1.66,2.08,3,4.65,3
							c2.57,0,4.65-1.34,4.65-3c0-0.5-0.19-0.96-0.51-1.37h-2.56c0.43,0.35,0.7,0.83,0.7,1.37c0,1.05-1.01,1.9-2.27,1.9
							c-1.25,0-2.27-0.85-2.27-1.9c0-0.76,0.53-1.42,1.31-1.72h5.89V23h-1.59v-2.15h-6.31v-1.3h7.78v-1.01l-9.95-0.01l0,2.3
							c0.08,0.49,0.52,0.98,1.02,1.02h5.29V23H17.16"/>
					</g>
					<path style="fill:#FFFFFF;" d="M31.25,19.9h-0.89c-0.94,0.17-1.64,0.84-1.64,1.64c0,0.93,0.93,1.68,2.09,1.68
						c1.15,0,2.09-0.75,2.09-1.68c0-0.52-0.3-0.99-0.75-1.29h2.42c0.41,0.38,0.64,0.82,0.64,1.29c0,1.37-1.97,2.49-4.39,2.49
						c-2.42,0-4.39-1.12-4.39-2.49c0-0.63,0.41-1.21,1.1-1.64h-1.71v-1.16h3.84v-0.76h2.17v0.76h4.09v1.16h-1.8"/>
					<g>
						<polyline style="fill:#FFFFFF;" points="39.87,24.67 39.87,24.67 39.87,24.67 						"/>
						<path style="fill:#FFFFFF;" d="M39.87,24.67l0-5.08h3.83v-1.05h-6l-0.01,6.38c0,0.48,0.58,1.07,1.02,1.07l0,0h6.63v2.4h2.17
							v-9.86h-2.17v6.13H39.87"/>
						<line style="fill:#FFFFFF;" x1="39.87" y1="24.67" x2="39.87" y2="24.67"/>
					</g>
				</g>
			</g>
		</g>
	</g>
</g>
<g id="도면">
</g>
</svg>
