<?xml version="1.0" encoding="utf-8"?>
<!-- Generator: Adobe Illustrator 24.2.0, SVG Export Plug-In . SVG Version: 6.00 Build 0)  -->
<svg version="1.1" id="Layer_1" xmlns="http://www.w3.org/2000/svg" xmlns:xlink="http://www.w3.org/1999/xlink" x="0px" y="0px"
	 viewBox="0 0 132.54 48.09" style="enable-background:new 0 0 132.54 48.09;" xml:space="preserve">
<path style="fill:#FFFFFF;" d="M80.38,43.29c-0.35-0.25-0.77-0.45-1.26-0.59c-0.48-0.14-1.01-0.21-1.57-0.21
	c-0.57,0-1.1,0.07-1.57,0.21c-0.49,0.14-0.91,0.34-1.26,0.6c-0.35,0.25-0.63,0.56-0.83,0.92c-0.2,0.37-0.29,0.77-0.29,1.21
	c0,0.44,0.1,0.85,0.3,1.2c0.2,0.35,0.48,0.66,0.83,0.9c0.34,0.24,0.76,0.43,1.25,0.57c0.48,0.13,1.01,0.2,1.57,0.2
	c0.57,0,1.1-0.07,1.58-0.2c0.48-0.13,0.9-0.32,1.25-0.57c0.35-0.26,0.63-0.56,0.83-0.91c0.2-0.35,0.3-0.76,0.3-1.2
	c0-0.43-0.1-0.83-0.3-1.19C81.01,43.86,80.73,43.55,80.38,43.29 M77.55,43.77c0.4,0,0.75,0.04,1.04,0.13
	c0.29,0.09,0.54,0.21,0.73,0.35c0.19,0.15,0.34,0.32,0.44,0.51c0.1,0.2,0.14,0.41,0.14,0.62c0,0.45-0.19,0.82-0.59,1.12
	c-0.4,0.31-0.99,0.46-1.76,0.46c-0.76,0-1.35-0.16-1.76-0.46c-0.41-0.31-0.61-0.67-0.61-1.13c0-0.2,0.05-0.4,0.16-0.59
	c0.11-0.19,0.26-0.37,0.46-0.52c0.2-0.15,0.45-0.27,0.74-0.36C76.83,43.82,77.17,43.77,77.55,43.77"/>
<path style="fill:#FFFFFF;" d="M78.31,39.36h3.48v-1.32h-7v-2.34h7v-1.32h-8.54v3.55c0,0.89,0.25,1.44,1.51,1.44h2.01v1.16h-5.12
	v1.32h11.81v-1.32h-5.15V39.36z"/>
<path style="fill:#FFFFFF;" d="M94.04,39.14c0.16-0.59,0.27-1.23,0.33-1.9c0.05-0.5,0.08-1.06,0.1-1.65
	c0.01-0.19,0.02-0.58-0.25-0.86c-0.23-0.23-0.62-0.35-1.16-0.35h-7.12v1.32h6.98l0,0.08c0,0.62-0.04,1.24-0.11,1.84
	c-0.07,0.59-0.17,1.12-0.29,1.56l-0.02,0.06h-8.18v1.32h5.13v1.79H85.8v1.32h7.23v4.42h1.55v-4.25c0-1.13-0.39-1.49-1.63-1.49H91
	v-1.79h5.13v-1.32h-2.12L94.04,39.14z"/>
<rect x="107.13" y="34.16" style="fill:#FFFFFF;" width="1.5" height="13.93"/>
<polygon style="fill:#FFFFFF;" points="104.54,38.19 102.46,38.19 102.46,39.54 104.54,39.54 104.54,48.09 106.03,48.09 
	106.03,34.16 104.54,34.16 "/>
<path style="fill:#FFFFFF;" d="M114.48,41.56c0.49,0,0.95-0.09,1.37-0.27c0.42-0.18,0.78-0.43,1.09-0.75
	c0.31-0.32,0.55-0.7,0.72-1.13c0.17-0.43,0.26-0.9,0.26-1.41c0-0.5-0.09-0.98-0.26-1.42c-0.17-0.43-0.42-0.81-0.72-1.13
	c-0.3-0.31-0.67-0.56-1.09-0.75c-0.42-0.18-0.88-0.27-1.37-0.27c-0.49,0-0.95,0.09-1.37,0.27c-0.42,0.18-0.78,0.43-1.09,0.75
	c-0.31,0.32-0.55,0.7-0.72,1.13c-0.17,0.43-0.26,0.91-0.26,1.41c0,0.51,0.09,0.99,0.26,1.41c0.17,0.44,0.42,0.82,0.72,1.13
	c0.31,0.32,0.67,0.57,1.09,0.75C113.53,41.47,113.99,41.56,114.48,41.56 M114.47,35.81c0.27,0,0.53,0.05,0.76,0.15
	c0.23,0.1,0.43,0.25,0.6,0.44c0.16,0.18,0.29,0.42,0.39,0.68c0.1,0.26,0.14,0.57,0.14,0.9c0,0.69-0.17,1.21-0.53,1.62
	c-0.35,0.39-0.81,0.6-1.36,0.6c-0.57,0-1.02-0.2-1.38-0.6c-0.36-0.4-0.53-0.93-0.53-1.61c0-0.33,0.05-0.63,0.14-0.9
	c0.09-0.26,0.23-0.5,0.39-0.68c0.17-0.19,0.37-0.34,0.6-0.44C113.93,35.86,114.19,35.81,114.47,35.81"/>
<path style="fill:#FFFFFF;" d="M119.46,42.7h-6.87v1.32h6.79v4.07h1.56v-4.1C120.93,43.14,120.44,42.7,119.46,42.7"/>
<polygon style="fill:#FFFFFF;" points="123.01,37.29 123.01,35.97 120.93,35.97 120.93,34.16 119.39,34.16 119.39,42.07 
	120.93,42.07 120.93,39.94 123.01,39.94 123.01,38.62 120.93,38.62 120.93,37.29 "/>
<path style="fill:#FFFFFF;" d="M102.75,41.44c-0.51-0.58-0.94-1.18-1.3-1.8c-0.03-0.05-0.06-0.1-0.08-0.16l-0.03-0.06
	c0.3-0.64,0.56-1.31,0.76-1.98c0.11-0.37,0.2-0.74,0.26-1.11c0.1-0.54,0.07-0.89-0.12-1.12c-0.19-0.23-0.56-0.35-1.12-0.35h-3.66
	v1.38h3.41l-0.01,0.09c-0.09,0.51-0.22,1.03-0.44,1.65c-0.21,0.63-0.51,1.26-0.88,1.87c-0.37,0.61-0.82,1.21-1.34,1.77
	c-0.42,0.46-0.83,0.83-1.23,1.16l-0.07,0.06l0.95,1.07l0.06-0.05c0.39-0.32,0.76-0.66,1.1-1.01c0.53-0.56,1.02-1.18,1.45-1.83
	l0.11-0.16c0.4,0.64,0.85,1.24,1.35,1.79c0.32,0.36,0.68,0.71,1.07,1.04l0.06,0.05l0.97-1.05l-0.07-0.06
	C103.55,42.29,103.15,41.9,102.75,41.44 M100.53,40.81L100.53,40.81C100.53,40.81,100.54,40.81,100.53,40.81L100.53,40.81z"/>
<polygon style="fill:#FFFFFF;" points="128.43,37.13 132.54,37.13 132.54,19.96 132.54,0 66.62,0 66.62,4.1 128.43,4.1 "/>
<polygon style="fill:#FFFFFF;" points="0,41.21 0,19.92 0,0 66.62,0 66.62,4.1 4.11,4.1 4.11,37.13 66.62,37.13 66.62,41.21 "/>
<path style="fill:#FFFFFF;" d="M21.18,11.54c-0.76-0.25-1.58-0.44-2.38-0.47c-0.98-0.04-2.44-0.02-3.86-0.02H12.2l0.01,16.36
	c0,0,3.34,0.01,4.8,0c0.6-0.01,1.21-0.03,1.81-0.09c1.53-0.17,2.94-0.66,4.09-1.74c1.11-1.04,1.69-2.36,1.95-3.82
	c0.38-2.11,0.35-4.23-0.19-6.31C24.18,13.54,23.07,12.15,21.18,11.54 M21.35,21.68c-0.45,1.78-1.55,2.37-3.01,2.5
	c-0.83,0.08-2.72,0.06-2.72,0.06l0-10.11c1.2,0.02,2.37-0.1,3.53,0.22c1.12,0.31,1.88,1.01,2.14,2.13c0.19,0.81,0.27,1.66,0.31,2.5
	C21.63,19.89,21.57,20.79,21.35,21.68"/>
<path style="fill:#FFFFFF;" d="M39.15,18.2c-0.47-1.83-1.63-3.07-3.47-3.61c-1.14-0.33-2.31-0.37-3.5-0.23
	c-2.32,0.28-4.14,1.85-4.73,4.11c-0.48,1.83-0.47,3.67,0.02,5.48c0.46,1.68,1.48,2.91,3.15,3.5c1.36,0.48,2.76,0.55,4.18,0.3
	c1.89-0.34,3.26-1.37,4.06-3.13c0.51-1.15,0.61-2.32,0.63-3.56c0.03-0.01-0.05-1.36-0.16-2C39.28,18.77,39.22,18.48,39.15,18.2
	 M36.14,22.17c-0.03,0.23-0.06,0.47-0.11,0.71c-0.24,1.14-0.85,1.72-2.01,1.86c-0.51,0.06-1.06,0.05-1.57-0.03
	c-1.01-0.16-1.61-0.81-1.83-1.79c-0.26-1.13-0.27-2.27-0.05-3.4c0.28-1.4,1.02-2.04,2.45-2.12c0.44-0.02,0.9,0.02,1.34,0.11
	c1.03,0.22,1.62,0.97,1.77,2.23c0.02,0.19,0.04,0.38,0.05,0.59C36.2,20.6,36.18,21.83,36.14,22.17"/>
<path style="fill:#FFFFFF;" d="M94.07,18.2c-0.47-1.83-1.63-3.07-3.47-3.61c-1.15-0.33-2.31-0.37-3.5-0.23
	c-2.32,0.28-4.14,1.85-4.73,4.11c-0.48,1.83-0.47,3.67,0.02,5.48c0.46,1.68,1.48,2.91,3.15,3.5c1.36,0.48,2.76,0.55,4.18,0.3
	c1.89-0.34,3.26-1.37,4.06-3.13c0.51-1.15,0.61-2.32,0.63-3.56c0.03-0.01-0.05-1.36-0.16-2C94.2,18.77,94.14,18.48,94.07,18.2
	 M91.06,22.17c-0.03,0.23-0.06,0.47-0.11,0.71c-0.24,1.14-0.85,1.72-2.01,1.86c-0.52,0.06-1.06,0.05-1.57-0.03
	c-1.01-0.16-1.61-0.81-1.83-1.79c-0.26-1.13-0.27-2.27-0.05-3.4c0.28-1.4,1.02-2.04,2.45-2.12c0.44-0.02,0.9,0.02,1.34,0.11
	c1.03,0.22,1.62,0.97,1.77,2.23c0.02,0.19,0.04,0.38,0.05,0.59C91.12,20.6,91.1,21.83,91.06,22.17"/>
<path style="fill:#FFFFFF;" d="M108.42,18.2c-0.47-1.83-1.63-3.07-3.47-3.61c-1.15-0.33-2.31-0.37-3.5-0.23
	c-2.32,0.28-4.14,1.85-4.73,4.11c-0.48,1.83-0.47,3.67,0.02,5.48c0.46,1.68,1.48,2.91,3.15,3.5c1.36,0.48,2.76,0.55,4.18,0.3
	c1.89-0.34,3.26-1.37,4.06-3.13c0.52-1.15,0.61-2.32,0.63-3.56c0.03-0.01-0.05-1.36-0.16-2C108.55,18.77,108.49,18.48,108.42,18.2
	 M105.41,22.17c-0.03,0.23-0.06,0.47-0.11,0.71c-0.24,1.14-0.85,1.72-2.01,1.86c-0.52,0.06-1.06,0.05-1.57-0.03
	c-1.01-0.16-1.61-0.81-1.83-1.79c-0.26-1.13-0.27-2.27-0.05-3.4c0.28-1.4,1.02-2.04,2.45-2.12c0.45-0.02,0.9,0.02,1.34,0.11
	c1.03,0.22,1.62,0.97,1.77,2.23c0.02,0.19,0.04,0.38,0.05,0.59C105.47,20.6,105.45,21.83,105.41,22.17"/>
<path style="fill:#FFFFFF;" d="M41.88,27.41c0.13,0,3.28,0,3.28,0l-0.01-9.57c0,0,0.32-0.08,0.64-0.14c0.9-0.14,1.76-0.23,2.64-0.03
	c0.75,0.16,1.23,0.59,1.38,1.35c0.05,0.25,0.05,0.52,0.05,0.78c0,2.42,0,7.62,0,7.62l3.26,0c0,0,0-5.34,0-7.84
	c0-0.44-0.02-0.88-0.08-1.3c-0.26-1.65-1.12-2.82-2.71-3.39c-1-0.36-2.05-0.43-3.11-0.4c-1.7,0.06-3.38,0.19-5.02,0.69
	c-0.26,0.08-0.33,0.12-0.33,0.12L41.88,27.41z"/>
<path style="fill:#FFFFFF;" d="M66.37,15.17c-0.87-0.2-1.73-0.45-2.61-0.58c-1.53-0.23-3.05-0.21-4.54,0.27
	c-1.61,0.52-2.76,1.56-3.35,3.15c-0.7,1.9-0.69,3.84-0.16,5.77c0.39,1.42,1.21,2.55,2.55,3.24c1.13,0.59,2.35,0.74,3.61,0.64
	c0.48-0.04,0.96-0.14,1.48-0.22c0,0.13,0,0.28,0,0.42c-0.01,1.21-0.53,1.87-1.73,2.13c-0.8,0.17-1.62,0.14-2.42,0.01
	c-0.46-0.08-0.92-0.18-1.38-0.28l-0.48,3.06c0.26,0.07,0.52,0.14,0.78,0.18c1.59,0.29,3.18,0.35,4.77-0.06
	c2.27-0.59,3.71-2.36,3.72-4.71c0.02-4.23,0.02-12.94,0.02-12.94S66.56,15.21,66.37,15.17 M63.06,24.4
	c-1.04,0.29-2.08,0.32-3.09-0.1c-0.81-0.34-1.11-1.07-1.23-1.87c-0.14-0.96-0.15-1.93,0.04-2.89c0.22-1.15,0.79-1.69,1.94-1.89
	c0.78-0.14,1.55-0.09,2.32,0.07c0.23,0.05,0.3,0.1,0.3,0.1l0,6.47C63.34,24.3,63.26,24.34,63.06,24.4"/>
<path style="fill:#FFFFFF;" d="M81.74,14.78h-3.97l-4.44,4.49l0-8.93h-3.26v17.08c0.63,0,2.2,0,3.27,0l0-4.11l1.03-1.04l3.82,5.15
	l3.79,0l-5.49-7.3L81.74,14.78z"/>
<path style="fill:#FFFFFF;" d="M119.22,27.41l3.79,0l-5.49-7.3l5.26-5.33h-3.97l-4.44,4.49l0-8.93h-3.26v17.08c0.63,0,2.2,0,3.27,0
	l0-4.11l1.03-1.04L119.22,27.41z"/>
</svg>
