<?xml version="1.0" encoding="utf-8"?>
<!-- Generator: Adobe Illustrator 24.2.0, SVG Export Plug-In . SVG Version: 6.00 Build 0)  -->
<svg version="1.1" xmlns="http://www.w3.org/2000/svg" xmlns:xlink="http://www.w3.org/1999/xlink" x="0px" y="0px"
	 viewBox="0 0 203.47 94.84" style="enable-background:new 0 0 203.47 94.84;" xml:space="preserve">
<g>
	<g>
		<polygon style="fill:#FFFFFF;" points="151.9,2.12 151.9,17.19 139.69,2.12 135.92,2.12 126.28,2.12 126.09,2.12 126.09,33.1 
			135.92,33.1 135.92,14.01 151.4,33.1 151.9,33.1 160.72,33.1 161.61,33.1 161.61,2.12 		"/>
		<g>
			<rect x="1.26" y="2.32" style="fill:#FFFFFF;" width="10.81" height="30.79"/>
			<path style="fill:#FFFFFF;" d="M67.06,2.32h-11.6V2.32H44.81V33.1h10.65V9.97h6.01c0,0,7.77-0.23,7.77,7.74
				c0,7.97-7.02,8.08-7.02,8.08h-5.46v7.34h10.09c13.62,0,13.76-15.49,13.76-15.49C80.61,3.88,67.06,2.32,67.06,2.32z"/>
			<polygon style="fill:#FFFFFF;" points="29.91,2.32 19.11,2.32 19.11,25.57 19.11,33.1 29.91,33.1 42.88,33.1 42.88,25.57 
				29.91,25.57 			"/>
		</g>
		<path style="fill:#FFFFFF;" d="M93.81,17.43c0-5.27,4.18-9.54,9.34-9.54c5.16,0,9.35,4.27,9.35,9.54c0,5.27-4.18,9.54-9.35,9.54
			C98,26.96,93.81,22.69,93.81,17.43z M82.18,18.41c0,16.89,21.12,16.48,21.12,16.48s20.84,1.29,20.84-17.23
			c0-18.53-20.64-17.64-20.64-17.64C98.94,0.02,82.18,1.52,82.18,18.41z"/>
		<path style="fill:#FFFFFF;" d="M191.84,12.33h10.83v-1.5c0,0-0.82-10.83-18.46-10.83s-20.43,10.56-20.43,17.3
			c0,6.74,3.2,16.69,19.55,16.69c0,0,8.04,0.68,17.37-4.43V14.71h-17.57v6.54h7.15v3.88c0,0-0.14,1.73-4.97,1.73
			c-4.84,0-9.94-2.48-9.94-9.7c0-7.22,4.09-9.88,9.26-9.88C184.62,7.29,191.84,7.36,191.84,12.33z"/>
		<path style="fill:#FFFFFF;" d="M67.38,50.81c0,0,10.63-14.08,36.6-14.08s35.5,14.08,35.5,14.08H67.38z"/>
	</g>
	<path style="fill:#FFFFFF;" d="M80.23,70.43c0.9-2.86,0.78-5.17,0.78-5.17H74.9c0,10.12-8.17,13.02-8.17,13.02v2.48
		c6.47-1.02,9.87-4.28,11.66-7.56c4.42,1.8,5.95,7.09,5.95,7.09h5.04C87.15,72.85,82.42,71.2,80.23,70.43z"/>
	<path style="fill:#FFFFFF;" d="M181.74,77.21c2.33-2.06,4.72-4.37,5.78-9.83l0.24-2.09h-16.72v3.31h10
		c-0.41,4.07-2.5,7.31-10.85,9.02v2.75C170.19,80.38,177.58,80.25,181.74,77.21z"/>
	<path style="fill:#FFFFFF;" d="M96.49,65.19v-0.02h-9.27c-0.63,0-1.11,0.49-1.11,1.04v14.07h5.37v-11.9h2.33v16.3l5.96,1.04V65.19
		H96.49z"/>
	<path style="fill:#FFFFFF;" d="M93.81,83.55c0,0.46-0.12,1.98-0.17,2.49c-0.06,0.56-0.38,1.49-0.62,1.98
		c-0.84,1.71-3.41,3.65-6.23,3.65c-3.5,0-6.33-2.37-6.33-5.3c0-1.76,1.03-3.33,2.61-4.29l-7.42,0.01c-1.17,1.25-1.84,2.71-1.84,4.28
		c0,4.6,5.81,8.34,12.99,8.34c7.17,0,12.99-3.74,12.99-8.34l-0.09-1.89"/>
	<path style="fill:#FFFFFF;" d="M128.23,65.05c-0.63,0-1.11,0.49-1.11,1.04v12.03h-9.49v-1.53c4.87-0.67,8.46-2.91,8.46-5.57
		c0-0.82-0.32-1.58-0.93-2.29l-6.05-0.01c0.62,0.65,0.99,1.44,0.99,2.3c0,2.21-2.44,4.01-5.46,4.01c-3.02,0-5.47-1.79-5.47-4.01
		c0-2.21,2.45-4.01,5.47-4.01c1.15,0,2.22,0.26,3.1,0.71l1.67,0h6.66v-2.57h-8.44v-2.13h-6.06v2.13h-8.35v2.57h2
		c-1.29,0.94-2.05,2.07-2.05,3.29c0,2.66,3.56,4.89,8.4,5.57v1.54h-8.39v2.57h26.71v0h3.07V68.4h3.13v-3.35H128.23z"/>
	<path style="fill:#FFFFFF;" d="M112.05,90.72l-0.01-1.85l20.83-0.01v-6.9l-26.78,0.03v2.7h20.84v1.49H106.1l0,3.86c0,0,0,0,0,0.03
		c0,1.85,1.45,3.37,3.24,3.37h23.57v-2.71H112.05z"/>
	<path style="fill:#FFFFFF;" d="M30.76,87.52V65.25h-6.89v13.06c-3.82,0-12.56,0-12.59,0c-3,0-5.25-2.2-5.25-5.49
		c0-2.8,1.93-5,4.93-5c3,0,5.23,2.59,5.23,5c0,2.09-0.22,3.29-1.65,4.36h6.05c1.17-1.42,1.57-2.51,1.57-4.36
		c0-5.34-5.27-8.72-11.28-8.72S-0.06,66.95,0,73.44c0.05,5.26,4.39,7.97,10.88,7.99c0.02,0,9.16,0,12.98,0v3.2H8.16v0.03h-5.6v5.23
		c-0.02,1.17,0.74,3.55,3.71,3.65h24.47v-2.79H9.48v-3.23H30.76z"/>
	<path style="fill:#FFFFFF;" d="M65.2,81.42v-3.36h-4.67v-3.94c0-1.77-1.32-2.06-1.54-2.06H42.34v-3.5h21.98v-3.32l-28.9,0.02v5.85
		c-0.03,1.17,0.73,4.17,3.71,4.27h1.88h0.74h12.02v2.68H33.31v3.36h6.14c-1.22,0.95-1.84,2.36-1.82,4.64
		c0.03,4.93,6.13,8.55,12.96,8.55c5.47,0,12.57-2.71,13.18-8.57c0.19-1.84-0.6-2.76-1.1-3.66h-6.82c0.72,1.06,1.73,1.75,1.73,3.83
		c0,3.29-3.9,4.8-7,4.8c-1.58,0-6.77-0.85-6.77-4.86c0-2.54,1.93-4.73,5.02-4.73C48.84,81.42,65.2,81.42,65.2,81.42z"/>
	<path style="fill:#FFFFFF;" d="M148.61,77.21c2.33-2.06,4.72-4.37,5.78-9.83l0.24-2.09H138.2v3.31h9.72
		c-0.41,4.07-2.5,8.35-10.85,10.06v2.8C137.06,81.46,144.03,81.07,148.61,77.21z"/>
	<path style="fill:#FFFFFF;" d="M160.99,85.99v-17.4h-4.96v-3.3h9.71c0.63,0,1.11,0.49,1.11,1.04l0,0v19.66H160.99z"/>
	<path style="fill:#FFFFFF;" d="M146.42,83.91l0,6.11h20.65v3.33H143.5c-1.79,0-3.24-1.52-3.24-3.36c0-0.03,0-0.03,0-0.03l0-6.05
		L146.42,83.91z"/>
	<path style="fill:#FFFFFF;" d="M203.47,68.61v-3.32H194c-0.63,0-1.11,0.49-1.11,1.04v14.64v5.8l-0.04,0.55
		c0,2.43-3.13,4.41-6.98,4.41c-3.86,0-6.99-1.97-6.99-4.41c0-2.43,3.13-4.41,6.99-4.41c3.04,0,6.03,0.54,6.03,0.53v-3.29
		c0-0.01-3.86-0.37-6.05-0.37c-7.21,0-13.05,3.37-13.05,7.53c0,4.15,5.84,7.52,13.05,7.52c7.21,0,13.05-3.37,13.05-7.52
		c0-0.14-0.01-0.28-0.02-0.41V68.61H203.47z"/>
	<path style="fill:#FFFFFF;" d="M92.51,51.28"/>
</g>
</svg>
