<?xml version="1.0" encoding="utf-8"?>
<!-- Generator: Adobe Illustrator 24.2.0, SVG Export Plug-In . SVG Version: 6.00 Build 0)  -->
<svg version="1.1" id="Layer_1" xmlns="http://www.w3.org/2000/svg" xmlns:xlink="http://www.w3.org/1999/xlink" x="0px" y="0px"
	 viewBox="0 0 246.28 56.72" style="enable-background:new 0 0 246.28 56.72;" xml:space="preserve">
<g>
	<g>
		<g>
			<path style="fill:#FFFFFF;" d="M105.5,26.79c-1.27-0.14-1.97-0.21-1.97-0.21s-1.4-0.07-1.82-0.07l-6.05,0.22
				c0,0-2.96,0.12-3.38-1.06l-0.43-3.45c0,0-0.15-1.2,2.25-0.56c0,0,2.96,0.35,5.63,0.28c0,0,2.25,0.63,3.94,0.35
				c0,0,2.82,0.08,3.1-1.55c0,0,0.56-1.41-0.14-2.17c0,0-0.14-0.99-2.96-2.19c0,0-1.96,0.22-2.81-0.14c0,0-1.13,0-2.53,0.22
				l-6.89,0.21c0,0-1.41,0.71-2.67,0.14l-1.55-0.06c0,0-1.26,0.34-2.25-0.21l-0.71-0.5c0,0-1.12-1.2,0.28-2.04l13.93-0.35
				c0,0,1.82,0.06,2.25,0.29l2.95,0.2l2.11-0.2c0,0,1.4-0.22,1.97-1.91c0,0,0.43-1.13-0.28-2.67c0,0,0.43-1.34-4.08-2.26
				c0,0-2.11-0.27-3.66-0.56c0,0-0.99,0.36-1.97,0.5c0,0-1.55,0.72-3.09,0.72l-9.28,0.13c0,0-2.11,0.07-2.95-0.35
				c0,0-0.71-0.21-1.83-0.36c0,0-0.84-0.14-1.54-0.35l-1.97,0.27c0,0-0.56-0.13-2.52,1.12c0,0-1.27,0.29-1.84,1.41
				c0,0-0.42,0.35,0,2.18L74,12.72l1.25,0.92c0,0-0.13,1.27,0.29,4.71c0,0,0.27,2.47,2.39,2.95l1.97,0.36h6.9l-0.56,0.63
				c0,0-0.71,0.35,0,1.2l0.84,1.13c0,0,0.28,0.7-0.28,0.97c0,0,0.14,0.57-0.42,0.78l-0.56,0.42l-8.31-0.35l-1.26-0.5l-1.27,0.15
				l-0.56,0.85l-0.57,0.22c0,0-0.7,0.63-0.56,1.2c0,0,0.28,1.61,0.71,1.69c0,0,0.28,0.99,1.68,1.27l10.13-0.22
				c0,0,1.4-0.49,2.25-0.49h3.79l4.22,0.43c0,0,2.81,0.62,3.94,0.69c0,0,2.11,0.5,3.51,0.5c0,0,2.96,0.07,2.96-0.14
				c0,0,1.26-0.08,1.54-1.48c0,0,0.15-1.56-0.28-2.18C107.75,28.42,106.91,27,105.5,26.79z"/>
			<path style="fill:#FFFFFF;" d="M98.19,37.48c0,0-0.43-0.98-2.53-1.76c0,0-0.57-0.63-2.11-0.91c0,0-1.13-0.14-1.55-0.99l-0.42-0.7
				c0,0-0.14-0.43-1.26-1.26c0,0-1.83-0.42-2.82-0.15c0,0-1.54,0.15-1.41,1.42c0,0,0.14,1.33-0.14,1.69c0,0-0.56,0.77-0.99,0.97
				c0,0-0.85,0.42-1.55,1.48c0,0-0.98,0.85-1.13,1.89c0,0-0.98,1.55-0.28,3.6c0,0,0.14,0.34,0.7,2.03c0,0,0.42,1.83,2.39,2.95
				l1.4,0.99l1.68,1.05c0,0,0.29,0.42,1.69,0.49l2.4-0.14c0,0,1.83-0.35,3.23-1.69c0,0,1.83-1.27,1.83-1.68c0,0,0.7-0.63,1.83-2.11
				c0,0,0.7-0.63,0.56-1.47c0,0,0.28-3.17-0.28-3.72C99.45,39.46,99.03,38.47,98.19,37.48z M93.55,41.42l-0.57,0.78
				c-0.84,0.64-1.13,0.76-1.13,0.76c-0.98,1.35-2.25-0.13-2.25-0.13c-1.12-0.5-1.54-1.69-1.54-1.69c-0.57-0.99,0-1.91,0-1.91
				c0.42-1.19,1.96-1.61,1.96-1.61h1.41l0.7,0.7c0.71,0.14,1.27,1.33,1.27,1.33C93.97,40.23,93.55,41.42,93.55,41.42z"/>
		</g>
		<path style="fill:#FFFFFF;" d="M155.79,19.06c0,0,0.4-0.77-2.27-0.7c0,0-1.71,0.07-1.86-0.29c0,0-1.26,0.37-1.4-1.89
			c0-0.64,0.14-3.72,0.14-3.72s0.43-0.77,0-1.27c0,0-0.43-0.7-0.43-1.96c0,0,0-1.9-1.97-1.9c0,0-0.92-0.49-2.75-0.36
			c0,0-0.98,0.36-0.84,1.2c0,0,0,0.92-0.85,1.84c0,0-0.42,1.33,0.14,1.75c0,0,0.7,3.3,0.56,4.99c0,0,0.14,0.42,0,0.77
			c0,0-0.29,1.62,0.14,4.72l0.56,6.39c0,0,0.14,0.49,0,1.33l0.14,5.84c0,0,0.12,2.17-1.58,1.32c0,0-1.12-0.47-6.47-0.05L132.29,37
			c0,0-2.4-0.07-1.97-1.62c0,0-0.28-2.11,0.42-2.04c0,0,1.55-0.85,2.11-1.69l0.84-0.91c0,0,0.85-1.33,1.13-2.32
			c0,0,0.42-1.48,0-2.88c0,0-0.29-0.72-1.27-1.98c0,0-0.84-1.12-1.83-1.69c0,0-1.12-1.13-1.69-1.27c0,0-1.83-1.54,0.28-1.89
			l1.26,0.14l1.4-0.07c0,0,0.99,0,1.13-0.06c0,0,0.84,0.2,1.69-0.28c0,0,0.84-0.22,1.4-1.06c0,0,0.71-0.21,0.71-0.99
			c0,0,0-1.49-0.42-2.26c0,0-0.56-1.19-2.11-1.41c0,0-0.7-0.43-3.09-0.43c0,0-1.83,0.43-1.4-1.83c0,0,0.13-1.26-0.71-1.82
			c0,0-0.56-0.49-1.83-0.71c0,0-2.53-0.63-3.79,0c0,0-1.41,0.29-1.41,1.68L123,10.74c0,0,0.71,1.27,0,1.69c0,0-1.26,0.07-2.53,0.14
			c0,0-1.4,0-2.24,0.29c0,0-1.55,0.62-1.55,1.19c0,0-0.71,0.66-0.14,2.28c0,0,0,1.47,1.55,1.61c0,0,0.42,0.42,2.11,0.49l3.1,0.2
			c0,0,0.84,0.5-0.14,1.13c0,0-0.99,0.14-2.11,1.48c0,0-0.42,0.2-1.54,1.97l-0.85,1.9c0,0-0.56,1.62,0,2.54c0,0,0.14,2.67,2.25,4.42
			c0,0,1.41,1.33,2.25,1.83c0,0,1.41,2.33,0,3.03c0,0-1.97,0.28-3.8,0.28c0,0-1.41,0.29-1.69,1.55c0,0-0.28,0.91,0,1.27
			c0,0,0.28,2.13,1.97,2.42c0.28,0.06,1.97,0.48,1.97,0.48l1.4-0.14l1.55-0.43l8.57-0.28l4.36,0.22l4.78,0.06c0,0,1.4-0.32,2.1,0.45
			c0,0,0.6,0.09,0.46,1.78c0,0,0.14,1.12-0.29,1.69c0,0-0.28,0.62,0,1.12c0,0,0.56,1.97,1.54,2.18c0,0,3.18,0.85,4.45-0.35
			c0,0,0.84-0.28,0.56-1.9l-0.56-16.24c0,0,0-1.98,0.28-2.11l0.15-3.32c0,0-0.29-1.4,1.12-1.4c0,0,2.12-0.07,2.69-0.56
			c0,0,1.43-0.08,1.57-2.11C156.35,21.59,156.77,19.97,155.79,19.06z M128.35,27.37c-0.42,1.26-1.83,1.47-1.83,1.47
			c-1.4-0.14-1.54-0.91-1.54-0.91c-0.56-0.35-0.56-2.11-0.56-2.11c0.56-1.46,1.83-1.54,1.83-1.54c0.84,0,1.4,0.36,1.4,0.36
			c0.85,0.56,0.85,1.61,0.85,1.61L128.35,27.37z"/>
		<g>
			<path style="fill:#FFFFFF;" d="M167.19,27.13c0,0,1.43,1.57,4.6,1.73c0,0,1.3,0.14,2.17,0.06l1.15-0.22l0.58-0.22
				c0,0-0.14,0.15,1.3-0.65l0.28-0.43l0.43-0.28l0.44-0.23l0.43-0.22l0.15-0.14c0,0,0.29-0.58,1.01-0.65c0,0,2.88-2.52,3.17-4.4
				c0,0,0.72-3.9-0.43-5.33c0,0-0.44-2.82-1.73-3.61l-1.3-1.8c0,0-0.57-0.51-1.58-1.07l-1.15-0.8c0,0-1.01-0.58-2.17-0.93
				c0,0-2.01-0.23-5.04,0.43c0,0-2.01,0.57-3.31,2.09c0,0-2.31,1.51-3.03,4.68c0,0-0.86,3.09,0.15,6.71
				C163.29,21.86,163.86,25.24,167.19,27.13z M169.34,16.16c0.87-2.16,3.46-1.95,3.46-1.95l2.15,0.5c1.45,0.66,1.88,1.96,1.88,1.96
				c1.02,1.57,0.15,3.3,0.15,3.3c0,1.02-1.01,1.89-1.01,1.89c-0.86,0.56-2.3,0.92-2.3,0.92c-1.01,0.37-2.31-0.44-2.31-0.44
				c-2.02-0.92-2.02-1.85-2.02-1.85C168.48,18.03,169.34,16.16,169.34,16.16z"/>
			<path style="fill:#FFFFFF;" d="M201.78,21.28c0,0,0-0.87-2.88-0.72l-2.88,0.14c0,0-1.45,0.06-1.45-0.73c0,0-0.42-1.14,0.44-1.51
				c0,0-0.29-0.43,2.88,0c0,0,3.75,0.72,4.04-0.5c0,0,0.72-0.15,0.72-2.03c0,0,0.58-1.73-0.29-2.3c0,0-0.71-1.44-2.73-1.37
				l-4.33,0.07c0,0-1.29,0.29-1.29-1.87c0,0,0.14-1.81-0.87-2.31c0,0-1.87-1.51-3.03-0.87c0,0-1.59,0.3-1.73,2.46l0.14,9.01v1.65
				c0,0,0.29,1.3,0.29,2.16c0,0-0.72,0.58,0,2.31l0.3,2.16c0,0,0,1.66,2.01,1.81c0,0,3.03,0.36,2.74-1.45c0,0,0-1.73,1.16-1.37
				l5.62-0.28c0,0,2.31,0.08,1.88-2.31C202.5,23.44,202.93,21.78,201.78,21.28z"/>
			<path style="fill:#FFFFFF;" d="M197.6,37.63c0,0,0.29-1.94-2.02-2.95c0,0-1.15-0.57-3.17-0.79l-6.63,0.36
				c0,0-0.72,0.22-1.87,0.08l-2.31,0.08c0,0-1.01-0.08-2.45,0.07l-6.05-0.22c0,0-1.73,0.22-2.31-0.64l-0.87-0.51l-1.44,0.15
				c0,0-1.87,0.5-2.59,2.52c0,0-1.01,1,0.29,2.37c0,0-0.15,1.09,2.88,1.44l4.61-0.28c0,0,1.72-0.07,5.19-0.5l5.48-0.22h3.17
				c0,0,2.17,0.07,2.17,2.23l0.29,5.77c0,0-0.29,3.17,3.03,3.1c0,0,1.15,0.07,3.02-0.22c0,0,1.73-0.21,1.73-2.45
				c0,0,0.43-1.52,0.14-4.75C197.89,42.26,197.75,39.08,197.6,37.63z"/>
		</g>
		<g>
			<path style="fill:#FFFFFF;" d="M232.18,20.89c0,0,1.82-0.15,3.19-0.07c0,0,1.66-0.31,2.57,0.31c0,0,1.21,0.61,2.88,0.53
				l2.43-0.16c0,0,2.28-0.3,2.28-1.29c0-0.53-0.15-0.6-0.15-0.53c0.15-0.54,0.15-1.82-0.91-2.43c0,0-0.91-1.13-3.94-0.84h-1.98
				c0,0-1.36,0-1.06-0.99c0,0-0.3-1.29,1.21-1.21h4.85c0,0,1.98,0.08,2.28-0.75c0,0,0.3-0.38,0.46-1.52c0,0,0-2.28-1.67-2.43
				c0,0,0.15-0.53-3.04-1.05c0,0-1.36,0.29-2.88-0.38l-2.72-0.24c0,0-0.61,0.62-1.83,0.69l-7.59,0.31l-4.24-0.15
				c0,0-1.07-0.16-1.21-0.61l-1.37-0.46c0,0-0.46-0.39-1.82-0.16L216.25,8c0,0-2.28,0.22-5.31,0.75c0,0-1.53,0.3-1.53,1.83
				c0,0-0.3,0.61,0.31,1.82c0,0,0,1.51,2.27,1.44h4.26c0,0,1.67,0.22,0.3,3.02l-3.64,0.16c0,0-1.37-0.38-1.52,1.28
				c0,0-0.46,1.14,0.3,2.2c0,0,0.15,1.07,1.52,0.99h2.73c0,0,1.67,0.16,2.28,0.23h1.82c0,0,0.91-0.23,1.51-0.31
				c0,0,0.91-0.38,1.36-0.61C222.92,20.82,230.2,20.05,232.18,20.89z M231.12,15.36c0,1.05-0.61,1.05-0.61,1.05l-4.4,0.16
				c-2.87,0-2.28-0.38-2.43-0.53c-1.06-0.99,0-2.2,0-2.2c1.21-0.3,1.97-0.38,1.97-0.38c0.31,0.22,2.27,0.14,2.27,0.14l3.04,0.08
				C231.26,14.21,231.12,15.36,231.12,15.36z"/>
			<path style="fill:#FFFFFF;" d="M223.23,47.3l6.82-0.23c0,0,3.95,0.07,4.39,0.98c0,0,0.92,0.53,2.58,0.77l2.43,0.45
				c0,0,2.12-0.45,2.43-0.99c0,0,1.66-0.76,1.96-1.6c0,0,0.45-0.75,0.45-1.29l0.15-1.81l0.3-4.1c0,0,0.3-1.21,0.15-3.19
				c0,0,0-1.52-3.03-1.67c0,0-3.5-0.15-5.02-0.23l-6.22-0.22l-1.52-0.08c0,0-1.67-0.83-0.46-1.52c0,0,0.61,0.07,0.46-1.37
				c0,0-0.3-1.82,0.31-1.82l0.76-0.07l8.8,0.23c0,0,1.97,0,2.42,0.22l0.61,0.23l1.37,0.08c0,0,1.21,0.08,1.36-1.23
				c0,0,0.15-0.98,0.46-1.29c0,0,0.31-0.99-0.15-1.05c0,0-0.15-1.14-1.97-0.84l-3.49-0.54l-10.16-0.37c0,0-1.67,0.61-3.04,0.07
				h-1.52h-1.06c0,0-0.6,0.23-2.28,0.3c0,0-1.82,0.24-3.79-0.3l-3.65-0.16h-1.97c0,0-1.98,0.16-2.12,1.84c0,0-0.46,0.98,0.3,1.89
				c0,0,0,1.07,1.51,1.07l5.01-0.22l5.92,0.06c0,0,0.75-0.6,0.91,0.61c0,0,0,0.69,0.46,1.89c0.15,0.23,0.3,1.83,0.3,1.83l-3.03,0.15
				c0,0-1.52,0.68-2.89,0.06c0,0-0.29-1.05-2.43-0.91c0,0-1.21-0.45-1.97,0.16c0,0-1.81,0.69-1.81,1.97c0,0,0,0.75,0,2.42
				c0,0.15,1.51,0.99,1.81,2.21c0,0,0.31,1.42,0.15,2.87l0.15,2.13c0,0-0.15,1.9,0.6,2.13c0,0,0.3,1.52,1.97,2.12
				c0,0,0.61,0.15,1.82,0.46l0.61-0.08l1.67-0.52C221.11,48.82,222.16,47.52,223.23,47.3z M232.18,38.88
				c2.73-0.23,3.34,0.3,3.34,0.3c0.76,0.23,0.91,1.59,0.91,1.59c0.15,1.9-1.52,1.61-1.52,1.61l-3.49-0.38l-8.65,0.14
				c-1.67,0.15-1.52-1.05-1.52-1.05c-0.3-1.9,0.15-1.9,0.15-1.9L232.18,38.88z"/>
		</g>
	</g>
</g>
<g>
	<path style="fill:#FFFFFF;" d="M60.82,17.52c-0.13-0.22-0.3-0.37-0.54-0.46c0,0-5.63-2.23-5.69-2.25c-0.02-0.07-1.23-6-1.23-6
		C53.31,8.56,53.19,8.36,53,8.2c-0.19-0.16-0.4-0.24-0.66-0.24c0,0-6.06-0.17-6.12-0.17c-0.04-0.05-3.21-5.21-3.21-5.21
		c-0.13-0.22-0.31-0.37-0.55-0.45c-0.23-0.09-0.46-0.09-0.7-0.01c0,0-5.75,1.91-5.81,1.94c-0.05-0.05-4.8-3.81-4.8-3.81
		C30.95,0.08,30.73,0,30.48,0c-0.25,0-0.47,0.08-0.66,0.24h0c0,0-4.75,3.76-4.8,3.81c-0.07-0.03-5.81-1.94-5.81-1.94
		c-0.24-0.08-0.47-0.08-0.71,0.01c-0.23,0.08-0.41,0.23-0.54,0.45c0,0-3.18,5.16-3.21,5.21c-0.07,0-6.12,0.17-6.12,0.17
		c-0.25,0-0.47,0.08-0.66,0.24C7.77,8.36,7.66,8.56,7.61,8.81c0,0-1.22,5.93-1.24,6c-0.06,0.02-5.69,2.26-5.69,2.26
		c-0.24,0.09-0.41,0.24-0.54,0.45C0.05,17.68,0,17.85,0,18.03c0,0.06,0.01,0.12,0.02,0.18l1.05,7.13l17.66,6.45
		c0,0,9.36,3.27,9.69,3.39c-0.33,0.11-6.7,2.29-6.7,2.29c-0.02,0-0.57,0.16-0.77,0.58c-0.05,0.1-0.08,0.2-0.08,0.32
		c0,0.1,0.02,0.22,0.07,0.33c0.75,1.86,2.03,3.45,3.71,4.6c1.72,1.17,3.74,1.79,5.84,1.79c2.1,0,4.12-0.62,5.84-1.79
		c1.68-1.15,2.96-2.73,3.71-4.6c0.05-0.11,0.07-0.23,0.07-0.33c0-0.11-0.02-0.22-0.07-0.32c-0.2-0.41-0.75-0.57-0.78-0.58
		c0,0-6.37-2.17-6.7-2.29c0.33-0.12,9.69-3.39,9.69-3.39l17.66-6.45l1.05-7.13c0.01-0.06,0.02-0.12,0.02-0.18
		C60.96,17.85,60.92,17.68,60.82,17.52z M41.74,4.28c0.13,0.17,3.69,4.54,3.74,4.61c-0.04,0.08-8.13,14.31-8.2,14.43
		c-0.1-0.08-1.87-1.41-1.94-1.46C35.38,21.77,41.67,4.49,41.74,4.28z M36.11,24.19c-0.05,0.09-4.29,7.52-4.63,8.1
		c0.12-0.66,1.64-9.08,1.66-9.18c0.09,0,1.34-0.04,1.34-0.04c0.19,0,0.47,0.1,0.61,0.22C35.1,23.3,36.04,24.13,36.11,24.19z
		 M30.55,2.28c0.18,0.11,5.02,3.01,5.09,3.05c-0.02,0.08-2.75,16.23-2.77,16.37c-0.13-0.04-2.25-0.69-2.33-0.71
		C30.55,20.9,30.55,2.5,30.55,2.28z M30.16,22.43c0.18-0.07,0.48-0.07,0.66,0c0,0,1.16,0.45,1.25,0.49c-0.02,0.1-1.46,8.53-1.58,9.2
		c-0.11-0.67-1.56-9.1-1.58-9.2C28.99,22.88,30.16,22.43,30.16,22.43z M29.49,32.29c-0.33-0.59-4.58-8.02-4.63-8.1
		c0.07-0.06,1-0.88,1-0.88c0.15-0.12,0.43-0.23,0.62-0.22c0,0,1.25,0.03,1.34,0.04C27.84,23.21,29.36,31.63,29.49,32.29z
		 M25.17,5.36c0.01,0.08,2.98,16.19,3,16.33c-0.13,0.01-2.34,0.12-2.43,0.12c-0.03-0.08-6.32-17.37-6.4-17.57
		C19.55,4.28,25.08,5.34,25.17,5.36z M15.34,8.97c0.05,0.07,8.33,14.2,8.4,14.31c-0.12,0.05-2.16,0.92-2.23,0.95
		C21.45,24.17,9.62,10.07,9.48,9.9C9.69,9.87,15.26,8.98,15.34,8.97z M18.35,27.96c-0.08-0.05-16.01-9.24-16.2-9.35
		c0.19-0.11,5.11-2.84,5.19-2.88C7.4,15.78,20.02,26.21,20.13,26.3C20.03,26.39,18.41,27.9,18.35,27.96z M19.2,30.34
		c0.01-0.09,0.2-1.32,0.2-1.32c0.03-0.19,0.18-0.45,0.33-0.57c0,0,0.97-0.78,1.04-0.84c0.08,0.06,6.66,5.53,7.18,5.96
		C27.32,33.34,19.3,30.38,19.2,30.34z M21.49,26.77c0.05-0.08,0.64-1.18,0.64-1.18c0.09-0.17,0.33-0.36,0.5-0.42
		c0,0,1.18-0.4,1.27-0.43c0.05,0.09,4.36,7.48,4.7,8.06C28.09,32.36,21.57,26.83,21.49,26.77z M23.27,40.34
		c-0.2-0.27-0.35-0.48-0.55-0.83c-0.2-0.34-0.3-0.57-0.44-0.88c0.11-0.05,5.15-1.96,5.79-2.21C27.55,36.86,23.37,40.26,23.27,40.34z
		 M24.73,41.9c-0.3-0.26-0.48-0.44-0.71-0.68c0.09-0.08,4.17-3.6,4.68-4.06c-0.35,0.59-3.11,5.22-3.17,5.32
		C25.24,42.3,25.03,42.15,24.73,41.9z M27.42,43.45c-0.37-0.13-0.61-0.25-0.9-0.4c0.06-0.1,2.68-4.8,3.02-5.4
		c-0.13,0.67-1.14,5.96-1.17,6.08C28.04,43.65,27.79,43.59,27.42,43.45z M30.48,44c-0.4,0-0.65-0.03-0.98-0.06
		c0.02-0.13,0.88-5.45,0.98-6.12c0.11,0.67,0.97,5.99,0.98,6.12C31.13,43.97,30.88,44,30.48,44z M33.55,43.45
		c-0.37,0.13-0.62,0.2-0.95,0.28c-0.02-0.12-1.03-5.41-1.16-6.08c0.33,0.6,2.96,5.3,3.02,5.4C34.15,43.2,33.92,43.32,33.55,43.45z
		 M38.67,38.63c-0.13,0.31-0.23,0.54-0.43,0.88c-0.2,0.35-0.35,0.55-0.55,0.83c-0.09-0.08-4.27-3.48-4.8-3.91
		C33.53,36.67,38.57,38.59,38.67,38.63z M36.95,41.22c-0.23,0.25-0.41,0.42-0.71,0.68c-0.31,0.26-0.51,0.4-0.79,0.59
		c-0.06-0.1-2.83-4.73-3.18-5.32C32.79,37.61,36.86,41.14,36.95,41.22z M32.36,32.8c0.34-0.59,4.65-7.98,4.7-8.06
		c0.09,0.03,1.27,0.43,1.27,0.43c0.18,0.06,0.41,0.25,0.5,0.42c0,0,0.6,1.09,0.64,1.18C39.4,26.83,32.87,32.36,32.36,32.8z
		 M33.01,33.58c0.52-0.43,7.1-5.9,7.17-5.96c0.07,0.06,1.05,0.84,1.05,0.84c0.15,0.12,0.3,0.38,0.33,0.57c0,0,0.19,1.23,0.2,1.32
		C41.67,30.38,33.65,33.34,33.01,33.58z M40.89,26.35c-0.07-0.11-1.28-1.96-1.33-2.03c0.06-0.08,11.88-14.16,12.03-14.33
		c0.07,0.2,1.91,5.53,1.93,5.61C53.46,15.65,40.99,26.26,40.89,26.35z M58.78,24.65c-0.08,0.03-15.42,5.74-15.55,5.79
		c-0.03-0.13-0.53-2.29-0.55-2.37c0.08-0.04,16.01-9.24,16.2-9.35C58.88,18.92,58.78,24.56,58.78,24.65z"/>
	<path style="fill:#FFFFFF;" d="M6.42,53.3L6.42,53.3c-0.81-0.31-0.95-0.53-0.95-0.87c0-0.31,0.26-0.63,0.84-0.63
		c0.53,0,0.85,0.19,0.91,0.22l0.18,0.12l0.25-0.76l0.05-0.12l-0.12-0.07c-0.14-0.08-0.55-0.28-1.25-0.28
		c-1.11,0-1.88,0.66-1.88,1.61c0,0.75,0.49,1.29,1.51,1.66c0.74,0.28,0.89,0.55,0.89,0.9c0,0.47-0.36,0.75-0.95,0.75
		c-0.41,0-0.82-0.12-1.13-0.32l-0.18-0.12l-0.24,0.77L4.3,56.26l0.11,0.07c0.33,0.22,0.94,0.38,1.45,0.38
		c1.49,0,2.01-0.92,2.01-1.71C7.87,54.21,7.44,53.7,6.42,53.3z"/>
	<rect x="10.5" y="50.9" style="fill:#FFFFFF;" width="1.04" height="5.81"/>
	<path style="fill:#FFFFFF;" d="M17.92,53.37c0,0.57,0.01,1.05,0.04,1.52c-0.19-0.36-0.4-0.72-0.66-1.13l-1.75-2.79L15.5,50.9h-1.03
		v5.81h0.99V54.2c0-0.64-0.01-1.12-0.02-1.57c0.19,0.37,0.43,0.77,0.71,1.21l1.74,2.78l0.05,0.08h0.97V50.9h-0.99V53.37z"/>
	<path style="fill:#FFFFFF;" d="M24.12,51.8c0.51,0,0.84,0.13,0.99,0.21l0.17,0.08l0.23-0.73l0.05-0.13l-0.13-0.08
		c-0.15-0.07-0.59-0.25-1.34-0.25c-1.76,0-2.94,1.19-2.94,2.95c0,1.74,1.09,2.86,2.79,2.86c0.71,0,1.24-0.15,1.47-0.27l0.11-0.06
		l-0.21-0.88l-0.18,0.09c-0.26,0.13-0.66,0.21-1.05,0.21c-1.17,0-1.87-0.74-1.87-1.97C22.21,52.58,22.94,51.8,24.12,51.8z"/>
	<polygon style="fill:#FFFFFF;" points="28.95,54.13 31.07,54.13 31.07,53.22 28.95,53.22 28.95,51.82 31.2,51.82 31.2,50.9 
		27.91,50.9 27.91,56.71 31.32,56.71 31.32,55.79 28.95,55.79 	"/>
	<polygon style="fill:#FFFFFF;" points="36.65,51.52 36.54,51.57 36.7,52.22 36.75,52.43 37.61,51.97 37.61,56.71 38.6,56.71 
		38.6,50.9 37.85,50.9 	"/>
	<path style="fill:#FFFFFF;" d="M44.09,53.61c0.63-0.4,0.72-0.94,0.72-1.24c0-0.71-0.54-1.47-1.72-1.47c-1.05,0-1.8,0.66-1.8,1.58
		c0,0.48,0.26,0.9,0.71,1.19c-0.58,0.33-0.9,0.84-0.9,1.45c0,0.93,0.82,1.6,1.94,1.6c1.14,0,1.97-0.72,1.97-1.71
		C45.01,54.41,44.68,53.92,44.09,53.61z M43.06,55.86L43.06,55.86c-0.28,0-0.53-0.1-0.69-0.27c-0.14-0.15-0.22-0.35-0.21-0.57
		c0-0.44,0.29-0.78,0.79-0.93c0.7,0.21,1,0.5,1,0.99C43.96,55.55,43.6,55.86,43.06,55.86z M43.16,53.23
		c-0.59-0.16-0.85-0.41-0.84-0.8c0-0.32,0.2-0.69,0.76-0.69h0.01c0.67,0,0.72,0.54,0.72,0.7C43.81,52.79,43.58,53.07,43.16,53.23z"
		/>
	<path style="fill:#FFFFFF;" d="M48.85,50.9c-1.11,0-1.98,0.89-1.98,2.03c0,1.04,0.73,1.8,1.73,1.8c0.37,0,0.7-0.09,0.98-0.28
		c-0.12,0.35-0.29,0.64-0.52,0.84c-0.27,0.27-0.62,0.43-1.01,0.47c-0.25,0.03-0.41,0.04-0.55,0.03l-0.17-0.01v0.93h0.16
		c0.02,0,0.03,0,0.05,0c0.17,0,0.39-0.02,0.63-0.04c0.62-0.07,1.21-0.35,1.63-0.76c0.44-0.42,0.96-1.22,0.96-2.61
		C50.77,51.82,50.04,50.9,48.85,50.9z M49.68,53.39c-0.19,0.29-0.53,0.47-0.91,0.47c-0.51,0-0.86-0.39-0.86-0.96
		c0-0.65,0.37-1.13,0.88-1.13c0.23,0,0.42,0.07,0.57,0.22c0.24,0.24,0.36,0.67,0.36,1.22C49.72,53.28,49.71,53.33,49.68,53.39z"/>
	<polygon style="fill:#FFFFFF;" points="52.74,51.84 55.33,51.84 53.07,56.47 52.96,56.71 54.08,56.71 56.51,51.62 56.53,51.58 
		56.53,50.9 52.74,50.9 	"/>
</g>
</svg>
