<?xml version="1.0" encoding="utf-8"?>
<!-- Generator: Adobe Illustrator 24.2.0, SVG Export Plug-In . SVG Version: 6.00 Build 0)  -->
<svg version="1.1" id="격리_모드" xmlns="http://www.w3.org/2000/svg" xmlns:xlink="http://www.w3.org/1999/xlink" x="0px"
	 y="0px" viewBox="0 0 86.63 16.08" style="enable-background:new 0 0 86.63 16.08;" xml:space="preserve">
<g>
	<rect x="0.25" y="0.25" style="fill:#FFFFFF;stroke:#FFFFFF;stroke-width:0.4911;" width="15.59" height="15.59"/>
	<rect x="17.27" y="0.25" style="fill:none;stroke:#FFFFFF;stroke-width:0.4911;" width="69.11" height="15.59"/>
	<g>
		<polygon style="fill:#FFFFFF;" points="66.53,2.03 63.82,2.03 63.82,8.41 66.53,8.41 66.53,7.32 68.45,7.32 68.45,6 66.53,6 
			66.53,4.47 68.45,4.47 68.45,3.14 66.53,3.14 		"/>
		<polygon style="fill:#FFFFFF;" points="66.52,8.91 53.88,8.91 53.88,10.24 63.82,10.24 63.82,14.18 66.53,14.18 66.53,8.93 
			66.52,8.93 		"/>
		<path style="fill:#FFFFFF;" d="M84.09,5.14h-2.02l0.21-1.82h1.81V1.99H71.45v1.32h1.78l0.21,1.82h-1.99v1.32h12.64V5.14z
			 M79.36,5.14h-3.21l-0.21-1.82h3.62L79.36,5.14z"/>
		<path style="fill:#FFFFFF;" d="M70.73,8.6h5.78v0.86h-5.06v0.98v0.35v2.02c0,1.51,1.62,1.35,1.62,1.35h11.02v-3.37v-0.43v-0.9
			h-4.86V8.6h5.52V7.27H70.73V8.6z M81.37,10.79v2.05h-7.22v-2.05H81.37z"/>
		<path style="fill:#FFFFFF;" d="M58.24,1.87c-2.68,0-4.94,1.37-4.94,3.19c0,1.99,2.26,3.18,4.94,3.18c2.69,0,4.94-1.2,4.94-3.18
			C63.18,3.25,60.93,1.87,58.24,1.87z M58.24,6.96c-1.2,0-2.18-0.85-2.18-1.9c0-1.06,0.98-1.91,2.18-1.91
			c1.21,0,2.19,0.85,2.19,1.91C60.42,6.11,59.45,6.96,58.24,6.96z"/>
		<path style="fill:#FFFFFF;" d="M45.18,5.06c0-1.82-2.26-3.19-4.94-3.19c-2.68,0-4.94,1.37-4.94,3.19c0,1.99,2.26,3.18,4.94,3.18
			C42.92,8.25,45.18,7.05,45.18,5.06z M38.06,5.06c0-1.06,0.98-1.91,2.18-1.91c1.2,0,2.18,0.85,2.18,1.91c0,1.05-0.98,1.9-2.18,1.9
			C39.03,6.96,38.06,6.11,38.06,5.06z"/>
		<polygon style="fill:#FFFFFF;" points="48.7,2.03 45.99,2.03 45.99,8.41 48.7,8.41 48.7,7.32 50.62,7.32 50.62,6 48.7,6 
			48.7,4.47 50.62,4.47 50.62,3.14 48.7,3.14 		"/>
		<path style="fill:#FFFFFF;" d="M42.61,8.78L42.61,8.78c-0.01,0-0.02,0-0.03,0c-0.01,0-0.02,0-0.03,0v0
			c-3.38,0.02-6.1,1.25-6.1,2.77c0,1.52,2.73,2.76,6.1,2.77v0c0.01,0,0.02,0,0.03,0c0.01,0,0.02,0,0.03,0v0
			c3.37-0.02,6.1-1.25,6.1-2.77C48.7,10.03,45.97,8.8,42.61,8.78z M42.58,12.98c-1.86-0.01-3.38-0.64-3.38-1.42
			c0-0.78,1.53-1.42,3.38-1.43c1.86,0.01,3.38,0.65,3.38,1.43C45.96,12.34,44.43,12.97,42.58,12.98z"/>
		<path style="fill:#FFFFFF;" d="M32.58,8.91H20.18v1.32h9.71v0.64h-9.71v1.3v0.03v0.92c0,0-0.09,1,1.04,1h11.37v-1.35h-9.7V12.2h7
			v0.01h2.71V8.93h-0.01V8.91z"/>
		<rect x="29.88" y="2.03" style="fill:#FFFFFF;" width="2.71" height="6.38"/>
		<path style="fill:#FFFFFF;" d="M28.79,5.06c0-1.82-2.27-3.19-4.95-3.19c-2.68,0-4.94,1.37-4.94,3.19c0,1.99,2.26,3.18,4.94,3.18
			C26.53,8.25,28.79,7.05,28.79,5.06z M21.67,5.06c0-1.06,0.98-1.91,2.18-1.91c1.2,0,2.18,0.85,2.18,1.91c0,1.05-0.98,1.9-2.18,1.9
			C22.65,6.96,21.67,6.11,21.67,5.06z"/>
		<path style="fill:#FFFFFF;" d="M8.04,8.04"/>
		<path style="fill:#FFFFFF;" d="M8.08,8.05"/>
		<path style="fill:#FFFFFF;" d="M8.04,8.03"/>
	</g>
	<path d="M10.11,7.58c0,0-3.12-0.84-5.41-0.05v1.3c0,0,1.92-0.72,5.02-0.02c0,0,1.97,0.65,4.96-0.11V7.42
		C14.68,7.42,12.71,8.13,10.11,7.58z M10.11,9.58c0,0-3.12-0.83-5.41-0.05v1.3c0,0,1.92-0.72,5.02-0.03c0,0,0.73,0.24,1.98,0.26
		c-0.89,1.13-2.27,1.85-3.82,1.85c-2.69,0-4.87-2.19-4.87-4.88c0-2.68,2.18-4.86,4.87-4.86c1.86,0,3.47,1.04,4.29,2.57
		c-0.61,0-1.31-0.05-2.08-0.22c0,0-3.12-0.83-5.41-0.04v1.29c0,0,1.92-0.72,5.02-0.03c0,0,1.98,0.65,4.97-0.1V5.37
		c0,0-0.38,0.14-1.03,0.25c-0.94-2.22-3.14-3.78-5.71-3.78c-3.43,0-6.21,2.78-6.21,6.22c0,3.42,2.78,6.2,6.21,6.2
		c2.38,0,4.45-1.34,5.49-3.31c0.4-0.06,0.82-0.14,1.28-0.25V9.42C14.68,9.42,12.71,10.12,10.11,9.58z"/>
</g>
</svg>
