<?xml version="1.0" encoding="utf-8"?>
<!-- Generator: Adobe Illustrator 24.2.0, SVG Export Plug-In . SVG Version: 6.00 Build 0)  -->
<svg version="1.1" id="Layer_1" xmlns="http://www.w3.org/2000/svg" xmlns:xlink="http://www.w3.org/1999/xlink" x="0px" y="0px"
	 viewBox="0 0 113.69 51.13" style="enable-background:new 0 0 113.69 51.13;" xml:space="preserve">
<g>
	<path d="M9.52,29.99h25.76l1.57-5.5h-5.34l0,0l1.94-6.72c-1.7,0.32-3.61,0.6-5.74,0.82L26,24.49l0,0h-4.99l0,0l1.6-5.55
		c-0.51,0.02-1.02,0.02-1.53,0.02c-1.39,0-2.7-0.05-3.94-0.14l-1.63,5.67l0,0h-4.39h-0.04h-3.4c-0.35,0-0.65,0.23-0.75,0.56
		c0.07,0,0.14-0.01,0.2-0.01c2.01,0,3.2,1.55,2.78,3.53L9.52,29.99z"/>
	<path d="M73.15,16.02h-3.88v0h-3.44c-0.35,0-0.65,0.23-0.75,0.56c0.07,0,0.14-0.01,0.2-0.01c2.11,0,3.33,1.71,2.71,3.82l0.1-0.33
		l-2.52,8.78h-3.64c0.16-4.63-3.24-8.61-9.4-8.61c-7.06,0-13.14,5.22-14.53,10.66c-0.09,0.34-0.15,0.68-0.2,1.02H0.75
		c-0.35,0-0.65,0.23-0.75,0.56c0.07,0,0.14-0.01,0.2-0.01c2.06,0,3.26,1.63,2.75,3.67l-0.36,1.27h8.99l-3.59,12.5h5.05
		c0.9,0,1.68-0.59,1.93-1.45l3.17-11.05h4.72l-3.59,12.5h5.05c0.9,0,1.68-0.59,1.93-1.45l3.17-11.05h9.37
		c1.45,2.45,4.29,4.14,8.3,4.14c5.46,0,10.33-3.12,12.9-7.05h3.93L59.5,49.92h6.56l9.01-31.34C75.44,17.3,74.48,16.02,73.15,16.02z
		 M54.85,30.9c-0.59,2.32-3.18,4.54-6.19,4.54c-3.01,0-4.47-2.22-3.88-4.54c0.59-2.32,3.18-4.54,6.19-4.54S55.44,28.58,54.85,30.9z"
		/>
	<path d="M113.24,16.02h-3.5h-0.02h-5.03c-0.9,0-1.68,0.59-1.93,1.45l-2.9,10.08c0,0,0,0,0,0.01c-0.61,1.35-1.66,2.42-2.95,3.06
		c-0.86,0.43-1.82,0.66-2.82,0.66H81.64l0.68-2.36l0.02-0.09h12.83l3.68-12.82h0l0,0h-18l-1.39,4.87h12.49l-0.88,3.08H74.82
		c-0.35,0-0.65,0.23-0.75,0.56c0.07,0,0.14-0.01,0.2-0.01c2.1,0,3.31,1.69,2.72,3.78l-2.43,8.49h6.41
		c-0.11,0.16-0.22,0.31-0.33,0.47c-0.74,1.15-1.26,2.37-1.51,3.61c-1.09,5.24,2.58,10.26,9.58,10.26c6.9,0,12.6-4.87,13.81-10.03
		l1.89-6.59h3.11c1.17,0,2.19-0.77,2.51-1.89l1.08-3.77h-5.07l2.53-8.79c0.78-1.95,2.88-3.47,4.89-3.47c0.07,0,0.14,0.01,0.2,0.01
		C113.76,16.31,113.54,16.02,113.24,16.02z M85.87,40.87c0.29-1.41,1.39-2.79,2.91-3.61c0.88-0.48,1.91-0.77,3-0.77
		c1.06,0,1.93,0.27,2.61,0.71h0c1.23,0.81,1.77,2.22,1.47,3.66c-0.47,2.23-2.92,4.37-5.91,4.37C86.97,45.24,85.4,43.1,85.87,40.87z"
		/>
	<path d="M6.6,14.6c0.21,0.07,0.42,0.14,0.65,0.21c0.36,0.12,0.76,0.23,1.18,0.36c0.13,0.04,0.26,0.07,0.39,0.11
		c0.15,0.04,0.29,0.08,0.45,0.12c2.19,0.57,5.05,1.11,8.49,1.35c1.15,0.08,2.36,0.12,3.63,0.12c0.6,0,1.22-0.01,1.85-0.03
		c0.89-0.03,1.8-0.08,2.74-0.16c0.82-0.07,1.62-0.15,2.38-0.23c0.43-0.05,0.86-0.1,1.27-0.15c10.97-1.39,14.01-3.61,14.01-3.61
		l4.02-8.23c0,0-11.05,4.59-22.78,4.59c-13.55,0-23.85-5.74-23.85-5.74l3.18,10.34C4.21,13.65,5.04,14.07,6.6,14.6z"/>
	<g>
		<path d="M66.53,5.94C77.37,5.72,81.21,7,81.21,7l3.93-4.86c0,0-8.38-2.31-16.88-2.13c-11.08,0.24-16.8,2.96-16.8,2.96l-3.83,7.78
			C47.63,10.76,56.4,6.14,66.53,5.94z"/>
	</g>
	<g>
		<path d="M97.15,9.02c8.54-0.3,13.61-2.21,13.61-2.21l2.93-4.59c-2.4,0.73-8.07,1.9-14.61,2.39c-6.05,0.45-11.37-1.44-11.37-1.44
			l-3.61,4.7C84.1,7.87,88.59,9.33,97.15,9.02z"/>
	</g>
</g>
</svg>
