<?xml version="1.0" encoding="utf-8"?>
<!-- Generator: Adobe Illustrator 24.2.0, SVG Export Plug-In . SVG Version: 6.00 Build 0)  -->
<svg version="1.1" id="레이어_1" xmlns="http://www.w3.org/2000/svg" xmlns:xlink="http://www.w3.org/1999/xlink" x="0px"
	 y="0px" viewBox="0 0 183.5 37.86" style="enable-background:new 0 0 183.5 37.86;" xml:space="preserve">
<g>
	<path style="fill:#FFFFFF;" d="M77.46,18.39c7.81,0,9.98-1.13,9.98-2.69c0-1.55-2.18-2.69-9.98-2.69c-7.81,0-9.98,1.13-9.98,2.69
		C67.48,17.26,69.65,18.39,77.46,18.39z M77.46,14.51c4.71,0,6.02,0.5,6.02,1.19c0,0.69-1.31,1.19-6.02,1.19
		c-4.71,0-6.02-0.5-6.02-1.19C71.44,15.01,72.75,14.51,77.46,14.51z M88.69,21.06v-1.59H66.23v1.59h9.48v1.26
		c-6.98,0.17-9,1.41-9,3.08c0,1.79,2.34,3.09,10.75,3.09c8.4,0,10.74-1.3,10.74-3.09c0-1.66-2.01-2.9-9-3.08v-1.26H88.69z
		 M84.15,25.4c0,0.85-1.46,1.47-6.69,1.47c-5.23,0-6.69-0.62-6.69-1.47c0-0.85,1.46-1.47,6.69-1.47
		C82.69,23.93,84.15,24.55,84.15,25.4z"/>
	<g>
		<path style="fill:#FFFFFF;" d="M149.03,24.13h-4.9l0.01-6.09l-3.48-0.01l-0.01,6.11l-3.15,0l0,1.76c0,0,11.45-0.01,11.54-0.01
			c0.73,0,1.48-0.16,1.48-0.16c1.4-0.36,1.53-1.08,1.53-1.08l-1.1-1.05C150.94,23.6,150.43,24.07,149.03,24.13z"/>
		<path style="fill:#FFFFFF;" d="M137.55,13.44l-0.01,1.87h0.01v0l9.41,0.01c-0.01,0,0.03,1.16,0.03,2.55
			c0,1.79-0.16,4.05-0.91,5.03h0.01l0,0h1.1l2.21,0.01c0-0.01,0.85-1.47,0.98-3.49l-0.01-5.98H137.55z"/>
		<polygon style="fill:#FFFFFF;" points="156.17,18.04 156.18,13.21 152.76,13.21 152.76,28.07 156.17,28.07 156.18,19.5 
			158.96,19.51 158.97,18.03 		"/>
	</g>
	<g>
		<path style="fill:#FFFFFF;" d="M168.73,14.21l0.01-1.19l-3.59-0.01l-0.01,1.19l-5.07,0.01l0.02,1.61h0.01l0,0l2.03,0
			c-0.43,0.13-1.99,0.58-1.99,2.26c0,1.67,2.77,3,6.81,3.01c4.03,0,6.8-1.34,6.8-3.01c0-0.9-0.48-1.71-1.97-2.25h2.01V14.2
			L168.73,14.21z M166.95,19.36c-1.94,0-3.51-0.62-3.51-1.36c0-0.74,1.57-1.36,3.51-1.36c1.93,0,3.5,0.62,3.51,1.36
			C170.45,18.74,168.88,19.36,166.95,19.36z"/>
		<polygon style="fill:#FFFFFF;" points="183.5,15.96 183.5,15.96 180.14,15.96 180.14,13.21 176.66,13.21 176.65,21.13 
			180.14,21.13 180.14,21.13 180.15,17.56 183.5,17.54 183.5,17.53 183.5,15.96 		"/>
		<path style="fill:#FFFFFF;" d="M176.61,28.06h3.53l0-3.62c0-0.29-0.1-2.38-2.6-2.38h-16.74l0,1.69h0.01l15.8,0.01V28.06z"/>
	</g>
	<path style="fill:#FFFFFF;" d="M42.04,13.44v8.97c0,0-0.06,3.18,7.28,3.32c0,0,4.66-0.08,6.35-0.78v3.11h3.22V20h1.69v8.06h3.13
		V13.44h-3.13v5.01h-1.69v-5.01h-3.22v8.19c0,0,0,2.83-5.58,2.33c0,0-3.67-0.07-4.87-1.69v-7.06h8.83v-1.76H42.04z"/>
	<g>
		<path style="fill:#FFFFFF;" d="M100.61,20.45c0,0,0.97-1.04,1.32-1.42c-1-0.39-4.29-1.83-4.44-4.34l-0.01-1.24l-3.61,0l0,0l0,1.23
			c0,0.01,0.01,2.61-4.27,4.38l0.79,1.53h0.01c1.85-0.23,4.11-1.46,5.39-2.73C96.73,18.8,97.9,19.85,100.61,20.45z"/>
		<polygon style="fill:#FFFFFF;" points="108.23,13.21 108.23,15.37 106.53,15.37 106.53,15.37 106.53,15.37 106.53,13.21 
			103.22,13.21 103.2,20.78 106.53,20.78 106.54,16.85 108.24,16.85 108.24,20.78 111.55,20.77 111.56,13.21 		"/>
	</g>
	<g>
		<polygon style="fill:#FFFFFF;" points="131.72,13.21 131.72,14.19 127.96,14.2 127.96,16.09 131.73,16.08 131.72,17.49 
			127.96,17.49 127.96,19.38 131.73,19.38 131.72,20.8 131.73,20.8 131.73,20.8 135.11,20.8 135.12,13.21 		"/>
		<path style="fill:#FFFFFF;" d="M113.93,13.44v0.01h0l-0.01,4.76c0,1.58,1.16,2.52,2.13,2.52c0.2,0,7.71,0.01,7.71,0.01
			c1.81,0,2.29-1.5,2.29-2.43c0-0.18,0.01-4.85,0.01-4.85L113.93,13.44z M122.59,18.98h-5.01l0.01-3.7l5.01,0.01L122.59,18.98z"/>
	</g>
</g>
<path style="fill:#FFFFFF;" d="M101.83,21.35c-6.29,0-9.68,1.58-9.69,3.56c0.01,1.98,3.44,3.56,9.69,3.56
	c6.13,0,9.68-1.59,9.69-3.56C111.51,22.94,107.92,21.35,101.83,21.35z M101.83,26.9c-3.87,0-5.76-0.9-5.77-1.99
	c0.01-1.08,1.9-1.99,5.77-1.99c3.71,0,5.77,0.9,5.77,1.99C107.59,26,105.54,26.9,101.83,26.9z"/>
<path style="fill:#FFFFFF;" d="M125.68,21.35c-6.29,0-9.68,1.58-9.69,3.56c0.01,1.98,3.44,3.56,9.69,3.56
	c6.13,0,9.68-1.59,9.69-3.56C135.37,22.94,131.78,21.35,125.68,21.35z M125.68,26.9c-3.87,0-5.76-0.9-5.77-1.99
	c0.01-1.08,1.9-1.99,5.77-1.99c3.71,0,5.77,0.9,5.77,1.99C131.45,26,129.4,26.9,125.68,26.9z"/>
<g>
	<g>
		<path style="fill:#FFFFFF;" d="M4.69,24.66c-0.26-0.16-0.44-0.03-0.51,0.05c-0.06,0.06-0.15,0.26,0,0.49
			c0.97,1.54,2.62,6.06-1.38,12.65c0,0,3.93,0,6.57,0C10.32,33.45,9.8,27.8,4.69,24.66z"/>
		<path style="fill:#FFFFFF;" d="M19.02,26.98c-0.38-0.08-0.66,0.25-0.34,0.55c0,0,3.09,2.72,2.47,10.32h5.69
			C26.85,37.85,26.72,28.71,19.02,26.98z"/>
		<path style="fill:#FFFFFF;" d="M34.83,15.55c0,0,1.83-1,0.62-2.76c0,0,1.06-1,0.07-2.14c0,0,0.68-1.23-0.3-2.07
			c0,0,1.4-2.24-0.23-3.16c-0.48-0.27-0.95-0.28-1.34-0.18c-0.24,0.06-0.46,0.17-0.68,0.3c-0.42,0.26-0.71,0.6-0.99,1.02
			c-0.33,0.5-0.83,1.34-1.59,2.79l-2.89-2.6c-0.2-0.19,0.04-0.53,0.16-0.71c0.2-0.3,0.48-0.52,0.78-0.71
			c0.32-0.2,0.67-0.35,1.03-0.47c0.27-0.08,0.89-0.2,0.88-0.57c-0.01-0.24-0.29-0.33-0.48-0.35c-0.15-0.02-0.32-0.04-0.48-0.04
			c-0.11-0.01-0.28,0.02-0.36-0.09C29,3.75,28.98,3.65,29,3.57c0.02-0.11,0.16-0.16,0.26-0.18c0,0,1.04-0.24,0.98-0.5
			c0,0,0-0.15-0.76-1.69c0,0-0.15-0.29-0.8,0.26c-0.1,0.09-0.18,0.19-0.33,0.22c-0.32,0.06-0.58-0.26-0.79-0.45
			c-0.27-0.25-0.55-0.48-0.87-0.66c-0.44-0.24-0.93-0.36-1.43-0.38c-0.08,0-0.17,0-0.25,0c-0.41,0-0.87,0.07-1.25,0.22
			c-0.16,0.06-0.34,0.06-0.48-0.03c-0.12-0.08-0.23-0.19-0.37-0.26C22.75,0.04,22.57,0,22.39,0c-0.65,0-1.18,0.52-1.18,1.18
			c0,0.04,0,0.09,0.01,0.13c0,0.02,0.01,0.04,0.01,0.07c0.03,0.16,0.09,0.32,0.18,0.46c0.02,0.03,0.04,0.05,0.05,0.08
			C21.5,1.95,21.55,2,21.55,2.06c0,0.05-0.02,0.09-0.06,0.13c-0.41,0.42-1.23,1.22-2,3.54c0,0-3.58-2.89-6.73-1.77
			c-0.21,0.07-0.41,0.17-0.6,0.27c0,0,1.56,0.92,2.13,1.85c0.04,0.07,0.03,0.12,0.01,0.16c-0.02,0.04-0.05,0.08-0.16,0.1
			c0,0,0,0,0,0L7.6,7.37c-0.05,0.01-0.1,0-0.11-0.04C7.47,7.29,7.5,7.25,7.51,7.24l5.75-4.84c0,0,0.22-0.18,0.4-0.46
			c0.11-0.14,0.17-0.32,0.17-0.51c0-0.43-0.32-0.79-0.75-0.85c-0.05-0.01-0.09-0.02-0.14-0.02c-0.32-0.04-0.62-0.03-0.62-0.03H7.21
			c0,0-0.11,0-0.24,0.03c0,0,0,0,0,0C6.8,0.59,6.68,0.74,6.68,0.92c0,0.14,0.09,0.25,0.21,0.36c0.26,0.24,0.48,0.35,0.49,0.73
			c0.01,0.4-0.2,0.78-0.39,1.11l-2.5,4.36C4.45,7.54,4.39,7.67,4.27,7.77c-0.12,0.1-0.25,0.12-0.42,0.14
			C2.87,8.04,0.55,8.37,0.37,8.39C0.1,8.42,0,8.59,0,8.79c0,0.17,0.1,0.31,0.25,0.36c0.16,0.06,0.29,0.11,0.51,0.19
			c0,0,0.61,1.83,0.71,2.09c0.1,0.26,0.51,0.88,1.59,0.52c0.4-0.13,0.97-0.03,0.97,0.74v10.16c0,0.02,0,0.08,0.03,0.13
			c0.03,0.05,0.09,0.09,0.15,0.09c0.45,0.08,1.68,0.36,2.84,1.05c0.05,0.02,0.08,0.04,0.12,0.02c0.04-0.03,0.04-0.07,0.04-0.1v-2.85
			h5.68l-0.01,1.46c0,0,0,1.45-1.54,1.45c0,0-3.2,0-3.32,0c-0.14,0-0.25,0.1-0.26,0.21c-0.02,0.18,0.09,0.27,0.27,0.38
			c0,0,6.72,3.9,4.96,13.17l5.63,0.01c0,0,0.45-5.86-3.87-9.28c-0.13-0.1-0.18-0.19-0.18-0.25c-0.01-0.12,0.12-0.15,0.21-0.17
			c0.04-0.01,0.08-0.02,0.12-0.03c0.96-0.26,5.39-1.75,5.44-6.69l0.03-9.31c0.05-1.86,0.25-2.2,0.61-2.2c0.24,0,0.38,0.38,0.53,0.93
			c0.29,1.08,0.7,2.01,1.51,2.81c0.53,0.52,1.06,1.05,1.59,1.57c0,0,2.85,2.78,3.05,3.01c0.41,0.46,2.12,3.22-2.19,5.71
			c-0.23,0.13-0.51,0.2-0.63,0.46c-0.15,0.33,0.21,0.65,0.41,0.86c0.57,0.62,1,1.28,1.4,2.01c1.23,2.25,2.97,6.57,2.13,10.55h6.54
			c0,0,0.6-9.11-7.65-12.27c-0.12-0.05-0.22-0.15-0.17-0.29c0.05-0.14,0.19-0.2,0.31-0.27c0.66-0.45,3.08-2.3,2.62-5.09
			C30.43,19.93,34.75,20.07,34.83,15.55z M12.97,19.04H7.23v-1.47h5.73V19.04z M12.97,15.42H7.23v-1.47h5.73V15.42z M16.62,24.75
			L16.62,24.75c-0.04,0.02-0.09,0.04-0.13,0.04c-0.13,0-0.23-0.1-0.23-0.22c0,0,0-0.01,0-0.01l0,0V13.38c0-1.45-0.97-1.57-1.42-1.57
			c-0.11,0-7.86,0-7.86,0c-0.58,0-0.84-0.26-0.96-0.48c-0.04-0.07-0.07-0.15-0.03-0.26c0.04-0.1,0.11-0.14,0.19-0.17l8-2.67
			c0.09-0.03,0.2-0.06,0.33-0.1c0.03-0.01,0.09-0.04,0.16,0c0.08,0.05,0.08,0.09,0.09,0.13c0.07,0.29,0.21,0.76,0.41,1.12
			c0.99,1.79,2.98,1.88,2.98,1.88l0,10.73C18.15,23.69,17.18,24.36,16.62,24.75z M25.05,1.06c0.4,0,0.73,0.33,0.73,0.73
			c0,0.41-0.33,0.73-0.73,0.73c-0.41,0-0.74-0.33-0.74-0.73C24.31,1.39,24.64,1.06,25.05,1.06z M29.7,16.83
			c-0.24-0.23-5.4-5.29-5.59-5.48c-0.19-0.2-1.3-1.42-0.19-2.57c0.8-0.84,1.89-0.37,2.32,0.03c0.43,0.39,4.98,4.54,4.98,4.54
			c0.31-2.68,1.47-3.31,1.47-3.31s0.66-0.47,1.1,0.16c0.36,0.5-0.21,1.21-0.21,1.21c0.36,0.1,0.43,0.47,0.38,0.79
			c-0.03,0.2-0.13,0.39-0.27,0.53c-0.1,0.1-0.19,0.14-0.19,0.14c0.15-0.01,0.26,0.06,0.31,0.17c0.06,0.11,0.09,0.27,0.08,0.4
			c0,0.31-0.11,0.63-0.32,0.85c-0.33,0.36-0.81,0.55-0.81,0.55c0.05,1.06-0.25,1.59-0.7,1.95C30.98,17.73,29.9,17.03,29.7,16.83z"/>
	</g>
</g>
</svg>
